<svg width="65" height="56" viewBox="0 0 65 56" fill="none" xmlns="http://www.w3.org/2000/svg">
<g clip-path="url(#clip0_39_327)">
<path d="M19.6577 28.011C20.2021 29.6492 21.3637 30.0324 21.5549 30.4789C21.5788 30.5754 21.577 30.6773 21.5495 30.7762C21.5221 30.875 21.4698 30.9679 21.3972 31.0471L20.6228 32.0633C20.5227 32.1949 20.3859 32.2999 20.2286 32.366C20.194 32.3772 19.6295 32.7375 17.929 31.1399C17.5845 32.0286 17.0297 32.8461 16.307 33.5297C15.5843 34.2133 14.7129 34.745 13.7595 35.0839C12.4957 35.6263 8.73757 36.2007 7.66995 32.7805C6.5278 30.0943 8.7157 27.348 11.6849 26.4071C12.2469 26.1997 13.4029 25.7983 15.5674 25.4727L15.1527 24.3576C14.6629 22.3893 12.7425 21.4351 10.4431 22.5406C10.2536 22.6119 8.89561 23.0754 7.08637 24.6106C6.59407 25.0684 6.50486 25.056 6.31111 25.1281C5.72511 25.346 5.39597 23.7228 5.43605 23.4868C5.67814 22.8767 7.78473 21.122 10.1681 20.2495C11.7114 19.5309 13.4582 19.3857 15.031 19.8452C15.7196 20.1646 16.3217 20.6144 16.8008 21.1676C17.2799 21.7208 17.6262 22.3658 17.8187 23.0637L19.6577 28.011ZM13.6833 32.8652C16.2355 31.8778 16.8036 30.0818 16.7723 29.2401C16.7 28.4502 16.4987 28.0082 16.2069 27.2236C15.3806 27.3424 14.2125 27.5711 12.9491 28.0394C11.7207 28.4036 9.71221 29.7008 10.5047 31.5702C10.8524 32.8054 12.2178 33.4849 13.6833 32.8652ZM27.8122 29.4838C27.2097 29.7664 26.7721 29.4756 26.5341 29.1164L18.224 18.826C18.0735 18.656 17.9466 18.47 17.8443 18.2699C17.7977 18.1891 17.789 18.0922 17.8201 18.0006C17.8512 17.9091 17.9196 17.8303 18.0102 17.7815C18.0281 17.7716 17.8417 17.8442 19.7698 17.1271C20.4408 16.8061 20.8504 17.2153 21.0376 17.4984L27.6018 26.5023L26.4848 15.4725C26.4413 15.227 26.4234 14.5957 27.2252 14.365L28.5823 13.8603C28.7491 13.7836 29.4476 13.4978 29.8604 14.2277L36.2905 23.4277L35.4191 12.1604C35.3992 11.9906 35.3323 11.2686 36.1466 11.0471L37.7061 10.4671C37.7698 10.4328 38.1709 10.2284 38.3491 10.9252C38.3642 11.07 38.3357 10.0639 38.6886 24.6066C38.744 25.0338 38.6019 25.5401 37.9612 25.7199L36.4831 26.2696C35.6485 26.6734 35.2373 25.9478 35.1949 25.875L28.9315 17.06L29.9765 27.8044C29.9928 27.8869 30.1557 28.7049 29.2592 28.9448L27.8119 29.4831L27.8122 29.4838ZM49.5893 21.8423C49.1246 22.016 46.8988 22.8185 44.7268 22.6519C44.5159 22.65 44.3145 22.59 44.1483 22.4795C43.982 22.369 43.8583 22.213 43.7929 22.0313L43.5075 21.2638C43.2831 20.6605 43.8146 20.5888 44.0494 20.5836C44.9512 20.5782 45.5422 20.6087 46.5827 20.4216C49.681 19.8813 50.6948 18.7054 50.9493 18.4336C51.7819 17.4892 51.3896 16.1828 50.4365 15.7839C49.3743 15.4646 48.9701 15.5881 45.6772 15.8473C45.276 15.8917 41.8599 16.1609 40.8239 13.397C40.0258 11.3988 41.3132 8.64932 44.8362 7.35781C45.8379 6.98446 48.6177 6.2871 49.6456 6.8386C49.8078 6.94811 49.9261 7.10404 49.9843 7.28475L50.2528 8.00655C50.3706 8.32354 50.3015 8.52968 50.0445 8.62526C49.4119 8.79063 48.0563 8.4569 45.8713 9.30364C45.3169 9.48058 42.7409 10.5418 43.4967 12.216C43.9662 13.5823 46.2933 13.2947 46.5595 13.2623C49.7341 12.9732 50.7465 12.7446 52.3366 13.5177C54.2829 14.6021 54.2438 16.7337 54.1527 17.3479C53.6392 20.5856 49.6563 21.819 49.5893 21.8423ZM55.5527 28.1464C51.3878 33.8986 44.0792 38.854 37.2148 41.4069C27.9731 44.9067 17.8796 45.1607 8.91851 42.1189C8.2457 41.8904 8.48695 41.1448 9.23408 41.2319C18.3298 42.3345 27.7389 41.192 36.5274 37.9177C43.0801 35.4445 49.1258 31.8276 54.3174 27.2746C55.1163 26.5711 56.2462 27.1912 55.5527 28.1464ZM56.9772 24.9111C55.9627 24.3522 52.1463 26.2705 50.436 27.1252C49.9195 27.3799 49.6721 26.9932 50.043 26.5018C52.4639 23.3121 57.8826 21.9527 58.7319 22.4064C59.5804 22.8605 60.5721 27.8506 58.442 31.2027C58.1158 31.7198 57.6119 31.6984 57.6444 31.1662C57.7476 29.4008 57.9919 25.4708 56.9772 24.9111Z" fill="#E8E8E8"/>
</g>
<defs>
<clipPath id="clip0_39_327">
<rect width="54" height="39" fill="white" transform="translate(-7.62939e-06 18.8233) rotate(-20.4005)"/>
</clipPath>
</defs>
</svg>
