<svg width="61" height="58" viewBox="0 0 61 58" fill="none" xmlns="http://www.w3.org/2000/svg">
<g clip-path="url(#clip0_39_324)">
<path d="M23.5635 10.7073C23.5409 10.0417 23.0198 9.519 22.3103 9.45005C21.6009 9.38109 20.8934 9.78441 20.6087 10.4201L13.7396 25.7609C13.6623 25.9334 13.6202 26.1153 13.6153 26.2968L13.0357 48.0267C13.0228 48.506 13.2709 48.9392 13.696 49.1797C14.1211 49.42 14.6661 49.4351 15.1469 49.2201L23.7279 45.3827C24.3293 45.1138 24.7161 44.5375 24.6958 43.9405L23.5635 10.7073Z" fill="#E8E8E8"/>
<path d="M31.0964 12.3143C30.651 11.9543 29.994 11.8946 29.4266 12.1625C28.8592 12.4304 28.491 12.9742 28.4908 13.5446L28.4854 28.8831C28.4852 29.3802 28.7653 29.8195 29.2243 30.0424L40.5526 35.543L27.3084 46.9276C26.7315 47.4233 26.5936 48.2052 26.9827 48.7737C27.3718 49.3423 28.1729 49.5294 28.8743 49.2157L57.4778 36.4244C57.9641 36.2069 58.3184 35.7835 58.4182 35.3005C58.518 34.8176 58.3499 34.341 57.9718 34.0352L31.0964 12.3143Z" fill="#E8E8E8"/>
</g>
<defs>
<clipPath id="clip0_39_324">
<rect width="47" height="42" fill="white" transform="translate(0 19.187) rotate(-24.094)"/>
</clipPath>
</defs>
</svg>
