<svg width="70" height="66" viewBox="0 0 70 66" fill="none" xmlns="http://www.w3.org/2000/svg">
<g clip-path="url(#clip0_406_115)">
<path d="M40.0443 28.7955C40.4015 26.8863 39.1292 25.5574 36.5482 25.0745L31.8007 24.1862L30.6499 30.3373L34.6533 31.0863C37.7445 31.6557 39.6628 30.8344 40.0443 28.7955ZM57.5363 30.9236C57.1408 28.0867 57.6215 24.7878 58.1988 22.2759C58.7953 19.6604 57.006 16.822 53.9918 16.258L23.0199 10.4634C19.9962 9.89764 17.3096 11.9076 16.9218 14.5532C16.5424 17.1021 15.8074 20.3535 14.4131 22.8556C13.0077 25.3645 11.1743 26.774 8.63772 26.523L8.17706 28.9852C10.6234 29.6664 11.8326 31.6452 12.2359 34.4925C12.6313 37.3294 12.1506 40.6283 11.5734 43.1402C10.9768 45.7558 12.7661 48.5942 15.7803 49.1581L46.7428 54.951C49.7665 55.5167 52.4531 53.5068 52.8409 50.8611C53.2203 48.3122 53.9553 45.0609 55.3496 42.5588C56.755 40.0499 58.5883 38.6403 61.1155 38.8896L61.5762 36.4275C59.1392 35.748 57.9301 33.7692 57.5363 30.9236ZM34.1 43.2149L24.8781 41.4895L28.7298 20.9024L37.9046 22.619C41.9833 23.3821 44.2803 25.9041 43.6984 29.0142C43.2895 31.1999 41.125 32.8158 38.7636 32.7227L38.7426 32.835C41.8117 33.7311 43.5405 36.1111 43.0281 38.8497C42.3477 42.4868 38.9888 44.1295 34.1 43.2149ZM34.915 33.6479L30.1957 32.7649L28.9285 39.538L33.855 40.4597C37.0765 41.0625 39.0029 40.1979 39.4199 37.969C39.8353 35.7487 38.2966 34.2806 34.915 33.6479Z" fill="#E8E8E8"/>
</g>
<defs>
<clipPath id="clip0_406_115">
<rect width="55.1987" height="45" fill="white" transform="translate(20.8028) rotate(27.5346)"/>
</clipPath>
</defs>
</svg>
