<svg width="60" height="60" viewBox="0 0 60 60" fill="none" xmlns="http://www.w3.org/2000/svg">
<g clip-path="url(#clip0_39_303)">
<path d="M30.6677 25.7364C19.8691 22.7088 12.4774 16.531 13.8398 11.6714C15.2023 6.8118 24.7283 5.37714 35.5269 8.4047C46.3255 11.4323 53.7172 17.6101 52.3547 22.4697C50.9923 27.3293 41.4663 28.764 30.6677 25.7364ZM34.987 10.3304C26.7891 8.03204 16.8792 8.23949 15.7656 12.2113C14.652 16.1832 23.0097 21.5123 31.2076 23.8107C39.4055 26.1091 49.3154 25.9016 50.429 21.9298C51.5426 17.9579 43.1849 12.6289 34.987 10.3304Z" fill="#E8E8E8"/>
<path d="M28.508 33.4394C17.7094 30.4118 10.3177 24.234 11.6802 19.3744L13.8398 11.6714C13.9891 11.1389 14.5402 10.8292 15.0727 10.9785C15.6051 11.1278 15.9149 11.6789 15.7656 12.2113L13.6059 19.9143C12.4924 23.8862 20.85 29.2152 29.0479 31.5136C37.2458 33.812 47.1558 33.6046 48.2693 29.6327L50.429 21.9298C50.5783 21.3973 51.1294 21.0876 51.6618 21.2369C52.1943 21.3861 52.504 21.9372 52.3547 22.4697L50.1951 30.1727C48.8326 35.0323 39.3066 36.4669 28.508 33.4394Z" fill="#E8E8E8"/>
<path d="M26.0784 42.1052C15.2798 39.0777 7.88811 32.8999 9.25058 28.0403L11.6802 19.3744C11.8295 18.8419 12.3806 18.5322 12.913 18.6815C13.4455 18.8308 13.7552 19.3818 13.6059 19.9143L11.1763 28.5802C10.0628 32.552 18.4204 37.8811 26.6183 40.1795C34.8162 42.4779 44.7262 42.2705 45.8397 38.2986L48.2693 29.6328C48.4186 29.1003 48.9697 28.7906 49.5022 28.9398C50.0346 29.0891 50.3444 29.6402 50.1951 30.1727L47.7655 38.8385C46.403 43.6981 36.877 45.1328 26.0784 42.1052Z" fill="#E8E8E8"/>
<path d="M23.6488 50.7711C12.8502 47.7435 5.4585 41.5657 6.82097 36.7061L9.25058 28.0402C9.39987 27.5078 9.95094 27.198 10.4834 27.3473C11.0159 27.4966 11.3256 28.0477 11.1763 28.5802L8.74672 37.246C7.63315 41.2179 15.9908 46.5469 24.1887 48.8453C32.3866 51.1438 42.2966 50.9363 43.4101 46.9645L45.8397 38.2986C45.989 37.7661 46.5401 37.4564 47.0726 37.6057C47.605 37.755 47.9148 38.306 47.7655 38.8385L45.3359 47.5044C43.9734 52.364 34.4474 53.7987 23.6488 50.7711Z" fill="#E8E8E8"/>
</g>
<defs>
<clipPath id="clip0_39_303">
<rect width="48" height="48" fill="white" transform="translate(12.9579) rotate(15.6617)"/>
</clipPath>
</defs>
</svg>
