<svg width="80" height="78" viewBox="0 0 80 78" fill="none" xmlns="http://www.w3.org/2000/svg">
<g clip-path="url(#clip0_39_318)">
<path d="M62.0527 15.2639C61.8754 15.1545 61.6679 15.0931 61.4507 15.0857C61.2335 15.0783 61.0142 15.1253 60.8145 15.2219L51.6883 19.7021C46.6916 22.155 47.2959 28.9805 48.3716 36.0165C41.1791 28.3443 38.5464 26.1536 33.4357 28.6625L23.1686 33.7027C16.5521 36.9509 14.5955 45.4234 16.822 61.1481C16.8495 61.3326 16.9234 61.5053 17.0376 61.6518C17.1518 61.7983 17.303 61.9145 17.4788 61.9908C17.6546 62.067 17.8498 62.1012 18.0484 62.0904C18.247 62.0796 18.4432 62.0241 18.6209 61.9286L23.184 59.6885C27.7472 57.4484 29.1303 55.6517 27.9365 43.761L29.5783 39.5498C38.5018 49.0756 41.3453 50.7729 44.8589 49.048L55.126 44.0078C58.8221 42.1933 60.6443 37.9457 62.5793 16.2791C62.594 16.0752 62.5533 15.8747 62.461 15.6969C62.3688 15.5191 62.2282 15.37 62.0527 15.2639Z" fill="#E8E8E8"/>
</g>
<defs>
<clipPath id="clip0_39_318">
<rect width="61" height="56" fill="white" transform="translate(-3.05176e-05 26.8812) rotate(-26.147)"/>
</clipPath>
</defs>
</svg>
