<svg width="30" height="31" viewBox="0 0 30 31" fill="none" xmlns="http://www.w3.org/2000/svg">
<g clip-path="url(#clip0_92_627)">
<path d="M6.25 7.375C6.25 6.21468 6.71094 5.10188 7.53141 4.28141C8.35188 3.46094 9.46468 3 10.625 3H15V11.75H10.625C9.46468 11.75 8.35188 11.2891 7.53141 10.4686C6.71094 9.64812 6.25 8.53532 6.25 7.375Z" stroke="#DCDDDE" stroke-width="2" stroke-linecap="round" stroke-linejoin="round"/>
<path d="M15 3H19.375C19.9495 3 20.5184 3.11316 21.0492 3.33303C21.58 3.55289 22.0623 3.87515 22.4686 4.28141C22.8748 4.68766 23.1971 5.16996 23.417 5.70076C23.6368 6.23156 23.75 6.80047 23.75 7.375C23.75 7.94953 23.6368 8.51844 23.417 9.04924C23.1971 9.58004 22.8748 10.0623 22.4686 10.4686C22.0623 10.8748 21.58 11.1971 21.0492 11.417C20.5184 11.6368 19.9495 11.75 19.375 11.75H15V3Z" stroke="#DCDDDE" stroke-width="2" stroke-linecap="round" stroke-linejoin="round"/>
<path d="M15 16.125C15 15.5505 15.1132 14.9816 15.333 14.4508C15.5529 13.92 15.8752 13.4377 16.2814 13.0314C16.6877 12.6252 17.17 12.3029 17.7008 12.083C18.2316 11.8632 18.8005 11.75 19.375 11.75C19.9495 11.75 20.5184 11.8632 21.0492 12.083C21.58 12.3029 22.0623 12.6252 22.4686 13.0314C22.8748 13.4377 23.1971 13.92 23.417 14.4508C23.6368 14.9816 23.75 15.5505 23.75 16.125C23.75 16.6995 23.6368 17.2684 23.417 17.7992C23.1971 18.33 22.8748 18.8123 22.4686 19.2186C22.0623 19.6248 21.58 19.9471 21.0492 20.167C20.5184 20.3868 19.9495 20.5 19.375 20.5C18.8005 20.5 18.2316 20.3868 17.7008 20.167C17.17 19.9471 16.6877 19.6248 16.2814 19.2186C15.8752 18.8123 15.5529 18.33 15.333 17.7992C15.1132 17.2684 15 16.6995 15 16.125Z" stroke="#DCDDDE" stroke-width="2" stroke-linecap="round" stroke-linejoin="round"/>
<path d="M6.25 24.875C6.25 23.7147 6.71094 22.6019 7.53141 21.7814C8.35188 20.9609 9.46468 20.5 10.625 20.5H15V24.875C15 26.0353 14.5391 27.1481 13.7186 27.9686C12.8981 28.7891 11.7853 29.25 10.625 29.25C9.46468 29.25 8.35188 28.7891 7.53141 27.9686C6.71094 27.1481 6.25 26.0353 6.25 24.875Z" stroke="#DCDDDE" stroke-width="2" stroke-linecap="round" stroke-linejoin="round"/>
<path d="M6.25 16.125C6.25 14.9647 6.71094 13.8519 7.53141 13.0314C8.35188 12.2109 9.46468 11.75 10.625 11.75H15V20.5H10.625C9.46468 20.5 8.35188 20.0391 7.53141 19.2186C6.71094 18.3981 6.25 17.2853 6.25 16.125Z" stroke="#DCDDDE" stroke-width="2" stroke-linecap="round" stroke-linejoin="round"/>
</g>
<defs>
<clipPath id="clip0_92_627">
<rect width="30" height="30" fill="white" transform="translate(0 0.5)"/>
</clipPath>
</defs>
</svg>
