<svg width="70" height="63" viewBox="0 0 70 63" fill="none" xmlns="http://www.w3.org/2000/svg">
<g clip-path="url(#clip0_39_314)">
<path d="M15.68 29.4972L30.8153 8.26107C31.3337 7.53781 32.8336 7.97422 33.0198 8.90711L34.9813 18.5326L15.68 29.4972ZM47.8014 50.14L52.4175 26.7702C52.45 26.603 52.4235 26.4217 52.3411 26.2461C52.2586 26.0705 52.1233 25.9072 51.9497 25.7739C51.776 25.6406 51.5708 25.5425 51.3562 25.4901C51.1416 25.4376 50.9258 25.433 50.7321 25.4765L11.9438 34.3319L25.0637 48.5517C25.471 48.9774 25.9824 49.3319 26.5505 49.5824C27.1187 49.8329 27.7253 49.9713 28.3143 49.9848L47.8014 50.14ZM42.7624 25.7922L41.3961 18.8072C41.3641 18.6292 41.2738 18.4517 41.1353 18.2944C40.9967 18.1372 40.8154 18.0063 40.6112 17.9163C40.407 17.8263 40.1881 17.7806 39.9785 17.7844C39.769 17.7882 39.577 17.8413 39.424 17.9378L13.3596 32.7294L42.7624 25.7922Z" fill="#E8E8E8"/>
</g>
<defs>
<clipPath id="clip0_39_314">
<rect width="57" height="43" fill="white" transform="translate(17.346) rotate(23.7907)"/>
</clipPath>
</defs>
</svg>
