<svg width="44" height="40" viewBox="0 0 44 40" fill="none" xmlns="http://www.w3.org/2000/svg">
<g clip-path="url(#clip0_39_333)">
<path d="M41.0847 20.4216L25.3644 2.96018C25.1492 2.72096 24.8847 2.52132 24.5862 2.37265C24.2876 2.22397 23.9608 2.12919 23.6244 2.09371C23.288 2.05824 22.9486 2.08276 22.6256 2.16587C22.3027 2.24899 22.0024 2.38908 21.742 2.57813L17.7948 5.44243L21.9352 10.0421C22.4922 9.93318 23.0754 9.96846 23.6182 10.1439C24.1609 10.3193 24.6415 10.6278 25.0049 11.0341C25.3683 11.4405 25.6 11.9283 25.6736 12.442C25.7471 12.9557 25.6595 13.4744 25.4207 13.9391L29.4101 18.3735C30.084 18.2356 30.795 18.31 31.426 18.5843C32.0569 18.8587 32.5702 19.3166 32.8813 19.8828C33.1924 20.449 33.2827 21.0897 33.1375 21.6993C32.9923 22.309 32.6201 22.8513 32.0822 23.2369C31.5369 23.6351 30.851 23.8471 30.1418 23.8367C29.4325 23.8263 28.7438 23.594 28.1933 23.1796C27.6429 22.7653 27.2648 22.1945 27.1237 21.5648C26.9826 20.935 27.0872 20.2855 27.4197 19.727L23.7003 15.5926L22.673 25.3328C23.2683 25.677 23.7194 26.1923 23.951 26.7928C24.1825 27.3933 24.1807 28.0427 23.9457 28.6329C23.7106 29.2231 23.2567 29.7183 22.6595 30.036C22.0622 30.3537 21.3578 30.4747 20.6636 30.3788C19.9693 30.2829 19.3273 29.976 18.8444 29.5092C18.3615 29.0423 18.067 28.4438 18.0099 27.8133C17.9528 27.1828 18.1366 26.5585 18.5307 26.0443C18.9247 25.5302 19.5052 25.1574 20.1754 24.9879L21.2121 15.1582C20.8544 14.9817 20.5374 14.7438 20.2793 14.4582C20.0213 14.1726 19.8274 13.8451 19.7087 13.4944C19.5901 13.1437 19.5491 12.7768 19.588 12.4148C19.627 12.0529 19.7452 11.7031 19.9358 11.3855L15.8564 6.85113L2.81701 16.3132C2.55651 16.5021 2.34097 16.7363 2.1827 17.0025C2.02443 17.2686 1.92653 17.5614 1.8946 17.8641C1.86267 18.1669 1.89733 18.4737 1.9966 18.7669C2.09587 19.0602 2.25781 19.3342 2.47317 19.5734L18.1932 37.037C18.4084 37.2762 18.6729 37.4758 18.9714 37.6245C19.27 37.7732 19.5968 37.868 19.9332 37.9034C20.2696 37.9389 20.609 37.9144 20.932 37.8313C21.2549 37.7482 21.5552 37.6081 21.8156 37.419L40.7431 23.6842C41.2686 23.3023 41.6 22.7444 41.6645 22.1332C41.7289 21.5219 41.5212 20.9072 41.0869 20.4241" fill="#E8E8E8"/>
</g>
<defs>
<clipPath id="clip0_39_333">
<rect width="40" height="36" fill="white" transform="translate(3.77585) rotate(6.02054)"/>
</clipPath>
</defs>
</svg>
