<svg width="30" height="31" viewBox="0 0 30 31" fill="none" xmlns="http://www.w3.org/2000/svg">
<path fill-rule="evenodd" clip-rule="evenodd" d="M15 0.813477C6.71652 0.813477 0 7.69741 0 16.1952C0 22.992 4.29911 28.751 10.2589 30.7867C11.0089 30.9273 11.2835 30.4519 11.2835 30.0434C11.2835 29.6751 11.2701 28.7108 11.2634 27.4251C7.09152 28.3559 6.20759 25.3626 6.20759 25.3626C5.52455 23.588 4.54018 23.1126 4.54018 23.1126C3.1808 22.155 4.64062 22.1751 4.64062 22.1751C6.14732 22.2822 6.9375 23.7621 6.9375 23.7621C8.27679 26.1126 10.4464 25.4362 11.3036 25.0412C11.4375 24.0501 11.8259 23.367 12.2545 22.9854C8.92634 22.597 5.42411 21.2778 5.42411 15.3849C5.42411 13.7041 6.0067 12.3313 6.96429 11.2599C6.81027 10.8715 6.29464 9.30455 7.11161 7.18848C7.11161 7.18848 8.37054 6.7733 11.2366 8.76214C12.4353 8.42062 13.7143 8.25321 14.9933 8.24651C16.2656 8.25321 17.5513 8.42062 18.75 8.76214C21.6161 6.7733 22.8683 7.18848 22.8683 7.18848C23.6853 9.30455 23.1696 10.8715 23.0156 11.2599C23.9732 12.338 24.5558 13.7108 24.5558 15.3849C24.5558 21.2912 21.0469 22.5903 17.7054 22.972C18.2411 23.4474 18.7232 24.3849 18.7232 25.8179C18.7232 27.8737 18.7031 29.5345 18.7031 30.0367C18.7031 30.4452 18.971 30.9273 19.7344 30.7733C25.7076 28.7443 30 22.9854 30 16.1952C30 7.69741 23.2835 0.813477 15 0.813477Z" fill="#145374"/>
</svg>
