<svg width="80" height="80" viewBox="0 0 80 80" fill="none" xmlns="http://www.w3.org/2000/svg">
<g clip-path="url(#clip0_90_594)">
<path fill-rule="evenodd" clip-rule="evenodd" d="M40.0075 0C17.925 0 0.0200195 17.905 0.0200195 39.9925C0.0200195 57.66 11.475 72.65 27.37 77.94C29.37 78.305 30 77.12 30 76.06C30 75.11 30.02 72.455 30 69.1175C18.8775 71.535 16.5725 63.85 16.5725 63.85C14.755 59.23 12.135 58 12.135 58C8.50502 55.52 12.4075 55.5675 12.4075 55.5675C16.42 55.85 18.535 59.69 18.535 59.69C22.1025 65.7975 27.8925 64.0325 30.17 63.0125C30.535 60.4275 31.57 58.665 32.7125 57.665C23.8325 56.655 14.4975 53.225 14.4975 37.9C14.4975 33.5325 16.055 29.965 18.6125 27.17C18.2 26.16 16.825 22.0925 19.005 16.585C19.005 16.585 22.3625 15.51 30 20.6875C33.19 19.8 36.6125 19.3575 40.0125 19.3425C43.41 19.3575 46.83 19.8 50.025 20.6875C57.6625 15.5125 61.015 16.585 61.015 16.585C63.195 22.0925 61.8225 26.16 61.4125 27.17C63.97 29.965 65.5225 33.5325 65.5225 37.9C65.5225 53.265 56.1725 56.645 47.2625 57.6325C48.6975 58.87 50 61.27 50 65C50 70 50 74.755 50 76.07C50 77.14 50.645 78.3225 52.675 77.935C68.555 72.6375 80 57.655 80 39.9925C80 17.905 62.095 0 40.0075 0Z" fill="#DCDDDE"/>
</g>
<defs>
<clipPath id="clip0_90_594">
<rect width="80" height="80" fill="white"/>
</clipPath>
</defs>
</svg>
