<svg width="119" height="102" viewBox="0 0 119 102" fill="none" xmlns="http://www.w3.org/2000/svg">
<g clip-path="url(#clip0_39_299)">
<path d="M67.6761 38.442C66.267 39.4885 65.0601 40.2587 63.9211 41.2504C62.9788 41.9541 62.0275 42.676 60.9296 43.494L60.8491 43.5454C60.3127 43.9626 60.2609 44.0007 59.4617 43.7386C58.5052 43.4369 57.8366 43.2689 56.7352 43.3295C53.4026 43.5246 50.8349 45.1081 48.9197 47.612C46.6218 50.6025 46.1512 53.6738 47.5453 56.5697C48.9287 59.4425 52.474 60.6809 56.0607 59.4966C59.3577 58.3622 61.507 56.3261 62.6571 53.5583C62.818 53.1183 62.945 52.68 63.0846 52.1936C63.1454 52.0249 63.1865 51.8512 63.2366 51.6593L54.6398 55.6433C53.7101 56.0741 53.2667 55.7174 53.2972 54.9583C53.3493 53.5708 53.5534 51.1992 53.7485 49.9703C53.7807 49.7024 53.8809 49.0938 54.4245 48.8419L68.8859 42.1401C68.8111 40.2914 69.1314 38.2454 69.8469 36.1148C71.4907 31.1504 74.4591 27.5822 79.5318 24.3178C83.7803 21.5618 88.2234 19.9385 93.1008 20.2644C97.5204 20.5776 100.917 22.2081 103.107 25.3959C106.122 29.9158 106.211 34.6816 103.52 40.0472C101.822 43.7713 98.9201 46.9575 95.0883 49.5625C94.3409 50.0494 93.581 50.4719 92.8353 50.8877C92.4313 51.1031 92.0468 51.3234 91.6624 51.5437C87.5822 53.3502 83.4431 54.1299 79.3221 53.4113C76.4204 52.8866 74.0301 51.7033 72.2729 49.8612C72.1351 50.9511 71.9007 52.0576 71.4017 53.2306C69.8992 58.0873 66.6947 62.1585 61.6649 65.1781C57.5077 67.6809 53.1433 68.8742 48.5645 68.3678C44.3362 67.8676 41.2291 66.0747 39.2039 62.9793C36.7943 59.3171 36.541 55.0211 38.0846 50.6654C39.7051 45.8384 42.9096 41.7671 47.682 38.6419C51.5406 35.9823 55.7764 34.6238 60.3176 34.9368C63.2622 35.1042 65.7491 36.0461 67.8353 37.6233C68.2572 37.8213 68.1571 38.0926 67.6761 38.442ZM17.6544 62.4102C17.4756 62.4931 17.3991 62.4442 17.4342 62.2874L17.9207 60.8813C17.9611 60.736 18.1521 60.5632 18.3309 60.4803L34.2457 53.1051C34.4173 53.0255 34.5085 53.1098 34.4709 53.2537L34.1471 54.5422C34.1149 54.6977 33.9343 54.9079 33.8056 54.9676L17.6544 62.4102ZM12.4627 68.8501C12.2844 68.9327 12.2023 68.8723 12.2432 68.7269L12.7288 67.3212C12.7698 67.1757 12.9551 66.9914 13.1329 66.909L33.4619 57.4881C33.6336 57.4086 33.773 57.4845 33.7784 57.6085L33.8229 58.6421C33.8444 58.8008 33.7102 58.9613 33.5243 59.0475L12.4627 68.8501ZM24.5526 67.0142C24.5121 67.1594 24.6047 67.243 24.7821 67.1608L34.5178 62.6913C34.6466 62.6316 34.7843 62.4413 34.7199 62.3024L34.4036 61.3949C34.3339 61.2445 34.1998 61.1801 34.0139 61.2663L25.1024 65.396C24.9236 65.4789 24.7945 65.6652 24.758 65.8227L24.5526 67.0142ZM95.3197 31.6892C95.1517 31.4017 95.0194 31.1537 94.8442 30.9257C92.3917 27.7332 87.391 27.5909 83.5269 30.3514C79.7273 33.0259 78.039 36.3945 78.6374 40.2354C79.1393 43.4182 82.1463 45.4824 85.8866 45.1546C88.7491 44.8822 91.1468 43.6445 93.0512 41.5673C95.8408 38.363 96.7334 35.2648 95.5253 32.0578C95.4466 31.9256 95.3876 31.7983 95.3197 31.6892Z" fill="#E8E8E8"/>
</g>
<defs>
<clipPath id="clip0_39_299">
<rect width="100.899" height="65.2933" fill="white" transform="translate(2.86102e-05 42.4246) rotate(-24.864)"/>
</clipPath>
</defs>
</svg>
