<svg width="80" height="80" viewBox="0 0 80 80" fill="none" xmlns="http://www.w3.org/2000/svg">
<g clip-path="url(#clip0_92_614)">
<path d="M40 80C62.0914 80 80 62.0914 80 40C80 17.9086 62.0914 0 40 0C17.9086 0 0 17.9086 0 40C0 62.0914 17.9086 80 40 80Z" fill="#DCDDDE"/>
<path d="M39.5702 20.0469C39.7967 19.9844 40.0311 19.9922 40.2655 20.0156C40.5623 20.0469 40.8123 20.2344 41.0702 20.375C46.2655 23.375 51.4608 26.3828 56.6639 29.3828C57.1639 29.6328 57.5311 30.1641 57.4998 30.7422V49.3125C57.5155 49.8359 57.1873 50.3203 56.742 50.5625C51.4373 53.625 46.1327 56.6953 40.828 59.7578C40.3514 60.0703 39.6952 60.0781 39.2108 59.7813C33.9998 56.7734 28.7967 53.7656 23.5858 50.75C23.328 50.5938 23.0467 50.4688 22.8514 50.2344C22.6092 49.9688 22.4842 49.6094 22.4998 49.25V30.6719C22.4842 30.1563 22.8123 29.6719 23.2498 29.4297C28.492 26.4063 33.7264 23.375 38.9608 20.3516C39.1639 20.2422 39.3514 20.1094 39.5702 20.0469ZM39.8748 23.7578C39.7577 23.7734 39.6561 23.8359 39.5545 23.8906C35.9452 25.9766 32.3358 28.0547 28.7342 30.1484C28.3045 30.3906 28.3045 31.0938 28.7498 31.3281C32.367 33.4297 35.992 35.5156 39.617 37.6094C39.8436 37.7578 40.1561 37.7578 40.3827 37.6094C44.0077 35.5156 47.6327 33.4297 51.2498 31.3281C51.6873 31.0938 51.6952 30.3906 51.2577 30.1484C47.6405 28.0547 44.0155 25.9609 40.3905 23.8672C40.242 23.7656 40.0545 23.7266 39.8748 23.7578ZM26.2889 34.5625C26.0155 34.6641 25.8358 34.9609 25.8514 35.25V47.7422C25.8436 48.0234 26.0155 48.2813 26.2577 48.4063C29.867 50.4922 33.4686 52.5781 37.078 54.6563C37.5233 54.9297 38.1405 54.5469 38.1092 54.0313V41.5313C38.117 41.2734 37.9842 41.0234 37.7655 40.8906L26.9373 34.6328C26.7498 34.5156 26.4998 34.4609 26.2889 34.5625ZM53.2264 34.5547C52.9061 34.7031 52.617 34.8984 52.3045 35.0703C48.9608 37 45.617 38.9375 42.2733 40.8672C42.0233 40.9922 41.8748 41.2578 41.8827 41.5391V54.0313C41.8514 54.5469 42.4686 54.9297 42.9139 54.6641C46.5233 52.5781 50.1327 50.4922 53.7342 48.4141C53.9764 48.2969 54.1561 48.0313 54.1405 47.7578V35.1953C54.1483 34.7422 53.6405 34.3828 53.2264 34.5547Z" fill="#145374"/>
</g>
<defs>
<clipPath id="clip0_92_614">
<rect width="80" height="80" fill="white"/>
</clipPath>
</defs>
</svg>
