<svg width="80" height="80" viewBox="0 0 80 80" fill="none" xmlns="http://www.w3.org/2000/svg">
<path d="M74.6095 20C72.3438 16.1016 44.5517 0 40.0251 0C35.4985 0 7.69541 16.0609 5.44385 20C3.19229 23.9391 3.17979 56.0625 5.44385 60C7.70791 63.9375 35.5032 80 40.0251 80C44.547 80 72.3438 63.9188 74.6079 60C76.872 56.0812 76.8751 23.9062 74.6095 20ZM49.3954 64.7219C48.7704 64.7219 43.0032 59.1328 43.4579 58.6766C43.5939 58.5406 44.436 58.4453 46.2001 58.3906C46.2001 54.2922 46.2923 47.6734 46.347 44.9031C46.347 44.5906 46.2782 44.3672 46.2782 43.9891H33.7892C33.7892 45.0984 33.7173 49.6453 34.0032 55.3766C34.0392 56.0859 33.7564 56.3141 33.1064 56.3047C31.5235 56.3047 29.9392 56.2875 28.3548 56.2922C27.7142 56.2922 27.4376 56.0531 27.4579 55.3375C27.6017 50.1125 27.9267 42.2125 27.4345 22.1078V21.6125C25.9235 21.5578 24.8751 21.4562 24.7376 21.325C24.2814 20.8687 30.1345 15.2797 30.7517 15.2797C31.3689 15.2797 37.1845 20.8703 36.7314 21.325C36.5954 21.4609 35.497 21.5578 34.111 21.6125V22.1062C33.7329 26.1297 33.7985 34.5422 33.7001 38.5734H46.2407C46.2407 37.8625 46.3017 33.1453 46.0532 25.5047C46.0376 24.975 46.2017 24.6969 46.711 24.6922C48.4407 24.6797 50.172 24.6719 51.9032 24.6828C52.4439 24.6828 52.6173 24.9516 52.6063 25.5234C52.0313 55.4125 52.5001 53.3266 52.5001 58.3891C53.886 58.4437 55.1282 58.5453 55.2642 58.6766C55.7142 59.1312 50.011 64.7219 49.3923 64.7219H49.3954Z" fill="#DCDDDE"/>
</svg>
