<svg width="64" height="65" viewBox="0 0 64 65" fill="none" xmlns="http://www.w3.org/2000/svg">
<g clip-path="url(#clip0_39_301)">
<path d="M25.218 57.5291C24.4669 57.3274 23.753 56.9428 23.1828 56.4253L17.2459 50.9193C16.3541 50.1225 16.9069 50.078 17.27 50.0683C18.7643 50.0086 19.0687 49.9939 20.7385 49.6383C20.9169 49.6005 21.1107 49.6846 21.2435 49.8168L25.8028 54.0526C25.9666 54.2038 26.2356 54.276 26.4418 54.2242L50.0082 49.1257C50.2257 49.0769 50.4026 48.9101 50.4563 48.7101L56.1789 27.3954C56.2353 27.1855 56.1629 26.9624 55.9907 26.7983L38.1553 10.595C37.9916 10.4439 37.7338 10.3747 37.5164 10.4235L13.9723 15.528C13.7437 15.5738 13.5667 15.7406 13.5104 15.9505L7.79049 37.2553C7.73681 37.4552 7.80644 37.6883 7.98407 37.8324L12.8726 42.2746C15.5877 44.4719 17.9032 43.3679 18.3407 41.7384L23.9881 20.7036C24.0686 20.4037 24.3994 20.2459 24.7357 20.3362L27.3588 21.0405C27.6839 21.1278 27.9025 21.433 27.8219 21.7329L22.1719 42.7777C21.1895 46.4368 18.3838 47.9343 14.4938 46.8899C13.2944 46.5679 12.3527 46.3151 10.0409 44.4511L5.36405 40.2051C4.20403 39.1541 3.72073 37.6417 4.09383 36.2521L9.8137 14.9474C10.1841 13.5677 11.3626 12.4907 12.893 12.1621L36.437 7.0576C37.9258 6.7499 39.6633 7.2164 40.7866 8.22536L58.6278 24.4516C59.7878 25.5026 60.2711 27.015 59.898 28.4047L54.1781 49.7094C53.8077 51.089 52.6319 52.156 51.0988 52.4946L27.5324 57.5931C26.7797 57.7554 25.9803 57.7337 25.218 57.5291ZM47.5717 41.0118C48.6427 37.0227 45.9004 35.1504 39.7456 32.6941C33.515 30.2067 32.9694 29.6422 33.3291 28.3026C33.6271 27.1929 34.5736 25.8607 39.3379 27.1398C43.5866 28.2805 44.9359 29.5216 44.8989 32.2556C44.8906 32.5106 45.0889 32.7567 45.3691 32.832L48.0596 33.5543C48.2277 33.5994 48.4008 33.5816 48.5424 33.5017C48.684 33.4218 48.7803 33.2869 48.8094 33.134C49.5783 28.6137 46.844 25.6824 40.2076 23.9006C34.2998 22.3145 30.184 23.5889 29.1828 27.318C28.0984 31.357 31.3066 33.4187 36.8335 35.4385C43.4573 37.8492 43.7452 38.8805 43.4258 40.0702C42.8729 42.1297 40.7758 42.5098 36.4151 41.3391C30.9333 39.8673 30.064 38.3156 30.3126 35.7778C30.3376 35.5059 30.142 35.2497 29.8393 35.1684L27.1601 34.4491C26.8238 34.3588 26.5015 34.5296 26.4237 34.8195C25.5889 37.9287 26.4876 42.1464 35.5566 44.5813C42.106 46.3289 46.4927 45.0308 47.5717 41.0118Z" fill="#E8E8E8"/>
</g>
<defs>
<clipPath id="clip0_39_301">
<rect width="52" height="53" fill="white" transform="translate(13.7426) rotate(15.0283)"/>
</clipPath>
</defs>
</svg>
