<svg width="71" height="71" viewBox="0 0 71 71" fill="none" xmlns="http://www.w3.org/2000/svg">
<g clip-path="url(#clip0_89_563)">
<path d="M38.4333 32.2424V32.1338C38.4108 32.1705 38.3868 32.2072 38.3628 32.2424H38.4333Z" fill="#DCDDDE"/>
<path d="M65.5183 0.585632H6.08238C3.23758 0.585632 0.93042 2.83776 0.93042 5.61341V65.745C0.93042 68.5192 3.23758 70.7714 6.08238 70.7714H65.5183C68.3673 70.7714 70.6745 68.5178 70.6745 65.745V5.61341C70.6745 2.83635 68.3659 0.585632 65.5183 0.585632ZM22.0702 59.34H11.5363V27.6479H22.0702V59.34ZM16.804 23.3186H16.7334C13.2 23.3186 10.914 20.8844 10.914 17.8435C10.914 14.7348 13.2706 12.3684 16.8731 12.3684C20.4771 12.3684 22.694 14.7348 22.7645 17.8435C22.7645 20.8844 20.4757 23.3186 16.804 23.3186ZM60.0559 59.34H49.522V42.3813C49.522 38.1225 47.998 35.2157 44.1866 35.2157C41.2768 35.2157 39.544 37.1757 38.7806 39.0694C38.5026 39.7453 38.4349 40.6908 38.4349 41.639V59.3386H27.9009C27.9009 59.3386 28.0392 30.6169 27.9009 27.6465H38.4349V32.1324C39.8347 29.9734 42.338 26.8986 47.9302 26.8986C54.8602 26.8986 60.0573 31.4297 60.0573 41.1649L60.0559 59.34Z" fill="#DCDDDE"/>
</g>
<defs>
<clipPath id="clip0_89_563">
<rect width="71" height="71" fill="white"/>
</clipPath>
</defs>
</svg>
