<svg width="70" height="70" viewBox="0 0 70 70" fill="none" xmlns="http://www.w3.org/2000/svg">
<g clip-path="url(#clip0_398_115)">
<path d="M35 0C15.6712 0 0 15.6691 0 35C0 54.3288 15.6712 70 35 70C54.3288 70 70 54.3288 70 35C70 15.6691 54.3288 0 35 0ZM25.9087 48.7309H18.7687V27.2497H25.9087V48.7309ZM22.3387 24.3163H22.2928C19.8953 24.3163 18.3466 22.6647 18.3466 20.6041C18.3466 18.4975 19.9434 16.8941 22.3847 16.8941C24.8259 16.8941 26.3309 18.4975 26.3769 20.6041C26.3769 22.6669 24.8259 24.3163 22.3387 24.3163ZM51.6534 48.7309H44.5134V37.2378C44.5134 34.3503 43.4809 32.3816 40.8953 32.3816C38.9244 32.3816 37.7497 33.7094 37.2334 34.9934C37.0453 35.4528 36.9972 36.0937 36.9972 36.7347V48.7309H29.8594C29.8594 48.7309 29.9534 29.2666 29.8594 27.2497H36.9994V30.2925C37.9466 28.8291 39.6441 26.7444 43.435 26.7444C48.1316 26.7444 51.6534 29.8156 51.6534 36.4131V48.7309Z" fill="#DCDDDE"/>
</g>
<defs>
<clipPath id="clip0_398_115">
<rect width="70" height="70" fill="white"/>
</clipPath>
</defs>
</svg>
