<svg width="72" height="65" viewBox="0 0 72 65" fill="none" xmlns="http://www.w3.org/2000/svg">
<g clip-path="url(#clip0_39_329)">
<path d="M31.0227 6.33466C30.6381 6.42006 30.245 6.52546 29.8443 6.64385C19.5156 9.69075 24.4388 18.7182 24.9938 21.9678C25.326 24.3666 25.1849 26.3456 23.8323 29.0596C22.1395 31.813 19.8712 36.1601 19.2576 40.3026C18.9661 42.2494 19.0464 44.1589 19.737 45.8265C19.6565 45.9213 19.581 46.015 19.5262 46.1787C19.0094 46.8998 18.6998 47.7218 18.2853 48.3522C17.8868 48.8909 17.2097 49.1951 16.4992 49.6537C15.7877 50.1193 14.9954 50.5962 14.6815 51.5979C14.5482 52.0527 14.5322 52.52 14.6417 52.9662C14.7369 53.3952 14.9006 53.8158 15.0347 54.0914C15.3696 54.9197 15.6715 55.5991 15.5959 56.1611C15.306 57.7637 15.4522 58.7854 16.0462 59.4203C16.6379 60.0445 17.5982 60.1367 18.6638 60.1986C20.7718 60.1829 23.4676 59.4373 25.836 59.961C28.3572 60.4575 30.7872 60.3794 32.5519 59.5328C33.8019 58.9951 34.737 58.0002 35.0968 56.83C36.5518 56.5001 38.0199 55.5724 40.5445 54.8647C42.2511 54.3545 44.5777 54.5731 47.0363 53.8733C47.163 54.1506 47.2879 54.2676 47.4791 54.5305L47.488 54.5353C48.8306 55.9971 50.7915 56.3625 52.6753 55.8062C54.5596 55.252 56.3688 53.7735 57.6502 51.7471C58.8497 49.7502 61.3072 48.4829 62.8311 47.1967C63.5993 46.5759 64.1672 45.839 64.033 45.0001C63.8986 44.1251 63.1505 43.3593 61.6022 42.425L61.5558 42.2159L61.5469 42.2111C61.0294 41.8736 60.6705 41.1954 60.265 40.401C59.8621 39.5834 59.4371 38.8068 58.5434 38.4171L58.536 38.4188C58.3638 38.3348 58.1987 38.3421 58.0049 38.2313C57.8478 38.1802 57.675 38.1643 57.5028 38.198C57.9604 35.2054 56.9371 32.5552 55.3052 30.3297C53.3077 27.5837 50.4073 25.4499 48.2411 24.0194C45.7849 22.2914 43.3938 20.6688 42.7551 17.6165C41.7919 12.9623 40.4071 4.26432 31.0227 6.33466ZM33.9654 13.3838L33.9976 13.3766C34.5261 13.2592 35.0099 13.2921 35.5414 13.4817C36.08 13.6675 36.5192 14.0156 36.8859 14.3888C37.2704 14.8893 37.4976 15.2913 37.6443 15.8582C37.6348 15.8151 37.6401 15.7686 37.631 15.7277L37.6808 15.9519C37.6725 15.9379 37.6637 15.9218 37.6608 15.9088L37.6394 15.8593C37.7507 16.3843 37.7391 16.9298 37.6052 17.4639C37.5484 17.7593 37.4248 18.0469 37.237 18.3035C37.1574 18.285 37.0813 18.2702 36.9986 18.2614C36.7165 18.2223 36.4742 18.2331 36.2278 18.1318C36.0382 18.1105 35.8436 18.1017 35.6528 18.1101C35.7461 17.9559 35.9489 17.7435 36.0096 17.583C36.0798 17.2779 36.0867 16.9687 36.0355 16.6679L36.0264 16.6269C35.9667 16.3348 35.852 16.0526 35.6835 15.7982C35.5073 15.532 35.3367 15.4205 35.0696 15.179C34.8296 15.083 34.592 14.9864 34.3439 15.0415L34.3042 15.0503C34.0735 15.1016 33.8819 15.212 33.7173 15.4793C33.5266 15.7343 33.4045 16.017 33.3686 16.3123C33.2979 16.6153 33.2865 16.9277 33.3367 17.2242L33.3458 17.2651C33.3934 17.4559 33.4514 17.6466 33.5233 17.8297C33.0123 17.7916 32.3719 17.78 31.9205 17.7287C31.8645 17.5941 31.8176 17.4529 31.7805 17.3096L31.771 17.2665C31.6247 16.7018 31.6259 16.1088 31.775 15.526C31.8736 15.0087 32.1563 14.5229 32.5868 14.14C32.9493 13.7677 33.4319 13.5022 33.9654 13.3838ZM26.6442 15.143L26.7335 15.1231C27.0859 15.0449 27.4264 15.0778 27.7882 15.1943C28.2122 15.392 28.5811 15.6697 28.8643 16.0072C29.1829 16.3867 29.4061 16.794 29.5633 17.3609L29.5652 17.3695C29.6467 17.6545 29.6763 17.7995 29.6876 17.944L29.7259 18.1165C29.6548 18.1481 29.5955 18.1862 29.5314 18.214C29.1806 18.4163 28.9162 18.656 28.652 18.8617C28.6392 18.6632 28.5986 18.4686 28.5316 18.2844L28.5245 18.2521C28.431 17.972 28.3324 17.8446 28.1616 17.5794C28.0358 17.3766 27.8508 17.2118 27.6219 17.0952C27.4788 17.0252 27.304 17.012 27.1372 17.0581L27.0851 17.0697C26.9118 17.1217 26.7821 17.2297 26.6868 17.4567C26.5648 17.658 26.5081 17.8832 26.5183 18.1049C26.503 18.3526 26.5363 18.5963 26.6197 18.8312L26.6264 18.8613C26.7208 19.1458 26.8144 19.2743 26.9872 19.5368C27.163 19.8008 27.3237 19.9145 27.5249 20.0236C27.5565 20.0369 27.5857 20.0508 27.6208 20.0566C27.4744 20.2181 27.364 20.272 27.2492 20.4468C27.1708 20.5275 27.0794 20.6202 26.9567 20.6655C26.6388 20.4534 26.3459 20.213 26.0819 19.9504C25.7432 19.5506 25.51 19.0866 25.378 18.5979C25.2277 18.12 25.1889 17.6174 25.2567 17.1137C25.2989 16.6587 25.4524 16.2129 25.7028 15.8044C25.9567 15.4472 26.2522 15.23 26.6442 15.143ZM30.8627 18.0654C31.684 17.883 32.7101 17.8022 34.0684 18.2561C34.8911 18.5258 35.4948 18.5479 36.9052 18.6849L36.9126 18.6832C37.6104 18.8359 38.0448 19.0335 38.2896 19.28L38.2269 18.9976C38.4784 19.2743 38.5727 19.6402 38.4916 20.002C38.3353 20.7402 37.5196 21.6747 36.2552 22.4056L36.2561 22.4099C35.6558 22.8486 35.1724 23.4039 34.5558 23.8394C33.9356 24.2825 33.2366 24.7929 32.1726 24.9726C31.7993 25.0736 31.4086 25.1083 31.0289 25.075C30.7273 25.0063 30.4277 24.9235 30.1352 24.8256C29.5867 24.642 29.0756 24.3098 28.3941 24.1603L28.3917 24.1495L28.3793 24.1523C27.269 23.8423 26.6057 23.3879 26.3368 22.9975C26.0373 22.4577 26.0998 21.9891 26.5284 21.5976C27.0196 21.1832 27.3415 20.804 27.566 20.6072C27.7886 20.3903 27.872 20.3085 27.94 20.2278L27.9449 20.2267L27.9435 20.2202C28.2661 19.6916 28.8008 18.9689 29.7375 18.4623C30.0652 18.3081 30.4359 18.1602 30.8627 18.0654ZM38.8335 21.1431C40.4026 24.0001 43.4671 27.975 45.2823 29.8296C46.2476 30.8232 48.1979 32.935 49.4643 35.7416C49.8489 35.6449 50.2892 35.5991 50.7678 35.5969C51.5707 31.6386 47.7533 28.4235 46.1671 27.6469C45.5225 27.3354 45.4311 27.0526 45.7015 26.9925C47.4186 27.8192 49.841 29.6294 51.1055 32.0292C51.6817 33.1115 52.0285 34.3216 51.957 35.6178C52.1367 35.6413 52.3212 35.675 52.4978 35.6493C55.314 36.2319 56.4528 36.8929 56.2855 38.2851L56.2649 38.1924C56.1121 38.2196 55.9671 38.2585 55.8158 38.2921L55.7786 38.3004C55.9297 37.2104 54.932 36.6221 52.5501 36.2485C50.0883 35.8903 48.3052 36.431 48.3785 38.2267C48.3817 38.3233 48.3803 38.3756 48.4009 38.5271C48.2432 38.6142 48.0814 38.718 47.913 38.7803C46.9743 39.5949 46.5907 40.5873 46.5136 41.7762C46.4462 42.9968 46.6452 44.3619 46.8997 45.9183L46.9011 45.9248C47.0089 46.6564 46.878 47.8256 46.7564 49.0131C43.5477 52.1506 38.6099 54.3013 33.6442 52.6803C33.2764 52.3254 32.8548 52.0096 32.3916 51.7528C32.1481 51.5241 31.8613 51.3344 31.5493 51.1843C32.0009 51.084 32.3741 50.9355 32.671 50.7836C32.9987 50.5593 33.2187 50.2367 33.2902 49.8906C33.4304 49.2554 32.9566 48.3879 31.8775 47.5734C30.7979 46.7567 29.0911 45.9414 26.7129 45.2796C24.9587 44.7665 23.8499 43.9473 23.1912 42.9037C22.5261 41.8434 22.317 40.6434 22.3665 39.3656C22.4621 36.9239 23.5225 34.3359 24.2048 32.7072C24.4392 32.5081 24.3613 32.9778 23.6588 35.0317C23.0357 36.8689 22.0231 41.0435 25.2011 43.4075C24.8219 41.2544 24.9005 39.0291 25.4296 36.8509C26.2172 33.785 28.0769 28.3365 27.4632 24.4824C27.5995 24.5335 28.0663 24.6539 28.277 24.7586C28.8816 24.9252 29.3793 25.2671 29.9635 25.436C30.5833 25.7531 31.3074 25.8954 32.2974 25.6755C32.3957 25.6605 32.4864 25.6471 32.5757 25.6273C33.5955 25.4009 34.3204 24.9368 34.9187 24.5008C35.5741 24.0521 36.0516 23.4937 36.5634 23.2307L36.5758 23.228C37.6699 22.6796 38.4576 21.9007 38.8335 21.1431ZM48.5459 39.2505C48.9254 40.5257 49.993 41.7455 51.3936 41.7331C52.9167 41.698 54.7922 40.2251 55.4712 39.0971L55.9904 38.9614C56.7682 38.7706 57.4269 38.665 58.2199 39.0703L58.2287 39.0751C58.8401 39.3895 59.2397 40.0518 59.6183 40.7482C60.0211 41.5658 60.3738 42.3449 61.1434 42.821C62.6016 43.6893 63.1775 44.4187 63.2672 44.9282L63.2718 44.9136L63.2804 44.9524L63.2672 44.9282C63.3554 45.5012 62.9978 45.8838 62.3164 46.4853C60.9452 47.6969 58.325 48.9822 56.9716 51.2237C55.7911 53.153 54.1151 54.4345 52.49 54.9131C50.8678 55.3932 49.325 55.1635 48.1547 53.8444L48.1408 53.8407C47.4278 53.0919 47.3524 51.6971 47.4707 50.1665C47.5876 48.6294 47.8888 47.0311 47.7109 45.8196C47.4609 44.26 47.2604 42.8997 47.3263 41.8015C47.4015 40.7329 47.709 39.9136 48.4457 39.327L48.5469 39.2548L48.5459 39.2505ZM21.7349 45.315L21.7597 45.3095C21.8912 45.2803 22.0226 45.2624 22.156 45.2532C23.1152 45.1646 24.0671 45.5821 25.0543 46.3107L28.1088 49.3966L28.1177 49.4014C28.9758 50.4166 30.4979 51.2798 31.852 52.2775C33.2151 53.3276 34.304 54.2915 34.4124 55.2605L34.4153 55.2734C34.63 56.9088 33.7763 58.0122 32.2434 58.6829C30.7076 59.3293 28.4729 59.5247 26.0787 59.0022C23.4203 58.3801 20.5989 59.1581 18.7016 59.2786C17.7545 59.3396 17.0894 59.1819 16.7158 58.8125C16.3451 58.4446 16.1477 57.5791 16.4321 56.093L16.4307 56.0866L16.4342 56.079C16.5646 55.2945 16.1482 54.4391 15.8315 53.6815C15.5031 52.8473 15.2862 52.1988 15.4882 51.6314C15.7253 50.8231 16.2798 50.553 16.9426 50.1027C17.6099 49.6491 18.4364 49.314 18.9909 48.5869L18.9959 48.5858L18.9944 48.5793C19.5013 47.8605 19.8109 47.0385 20.2507 46.4047C20.6259 45.8667 21.0327 45.471 21.7349 45.315ZM35.1541 21.8086C34.171 22.4816 33.0654 23.4827 31.7181 23.7818C30.3733 24.0805 29.1835 23.7407 28.3215 23.4819C27.8728 23.2785 27.4985 23.0585 27.2332 22.9658C26.7621 22.7673 26.716 22.3251 26.8897 22.2865C27.1678 22.261 27.2744 22.5065 27.4797 22.6102C27.7495 22.6996 28.1084 22.9208 28.5348 23.1292C29.3526 23.4 30.4456 23.7613 31.6515 23.4935C32.8549 23.2263 34.1364 22.3377 34.8972 21.7186C35.3164 21.3201 35.8414 20.7534 36.2814 20.3548C36.6029 19.9735 36.5228 19.695 36.8454 19.6233C37.1731 19.5867 36.9939 19.8935 36.6401 20.4222C36.2556 20.813 35.6566 21.3984 35.1521 21.8113L35.1516 21.8092L35.1541 21.8086ZM31.7111 18.99L31.7005 18.9425C31.6766 18.9049 31.7127 18.8448 31.7486 18.8188C31.9116 18.6853 32.1823 18.6614 32.3956 18.6841C32.5519 18.6494 32.8247 18.7404 32.8324 18.8925C32.841 19.0015 32.6531 19.0816 32.529 19.1092C32.3926 19.1395 32.2802 19.0672 32.1466 19.0403C32.009 19.0301 31.7805 19.1035 31.7111 18.99ZM30.3439 19.2936C30.3221 19.4296 30.087 19.4615 29.9636 19.5273C29.859 19.6071 29.7828 19.7213 29.6513 19.7505C29.5247 19.7786 29.3172 19.7817 29.2788 19.6794C29.2249 19.542 29.4335 19.3442 29.5873 19.31C29.7735 19.1985 30.0214 19.1073 30.2276 19.1565C30.279 19.1655 30.3313 19.2014 30.3259 19.2478L30.336 19.2931L30.3434 19.2914L30.3439 19.2936Z" fill="#E8E8E8"/>
</g>
<defs>
<clipPath id="clip0_39_329">
<rect width="61" height="53" fill="white" transform="translate(-4.19617e-05 13.2236) rotate(-12.52)"/>
</clipPath>
</defs>
</svg>
