<svg width="30" height="31" viewBox="0 0 30 31" fill="none" xmlns="http://www.w3.org/2000/svg">
<path d="M14.0176 0.508074C13.9531 0.513939 13.7478 0.534467 13.563 0.54913C9.30205 0.933294 5.31085 3.23241 2.78299 6.76614C1.37536 8.73095 0.475074 10.9597 0.134898 13.3204C0.0146628 14.1445 0 14.3879 0 15.5051C0 16.6225 0.0146628 16.8659 0.134898 17.6899C0.950146 23.3234 4.95895 28.0565 10.3959 29.8101C11.3695 30.1239 12.3959 30.338 13.563 30.467C14.0176 30.5169 15.9824 30.5169 16.437 30.467C18.4516 30.2441 20.1584 29.7456 21.8416 28.8864C22.0998 28.7544 22.1495 28.7193 22.1144 28.6899C22.0909 28.6723 20.9912 27.1973 19.6715 25.4142L17.2728 22.1738L14.2669 17.7251C12.6129 15.2794 11.2522 13.2794 11.2405 13.2794C11.2287 13.2764 11.217 15.253 11.2111 17.6664C11.2024 21.8923 11.1994 22.0624 11.1466 22.162C11.0704 22.3057 11.0117 22.3644 10.8886 22.4289C10.7947 22.4759 10.7126 22.4846 10.2698 22.4846H9.76246L9.62756 22.3996C9.53959 22.3439 9.47507 22.2705 9.43109 22.1855L9.3695 22.0535L9.37536 16.1737L9.38416 10.2911L9.47507 10.1767C9.522 10.1151 9.6217 10.0359 9.69209 9.99781C9.81231 9.93916 9.85924 9.9333 10.3666 9.9333C10.9648 9.9333 11.0645 9.95675 11.2199 10.1268C11.2639 10.1738 12.8915 12.6254 14.8388 15.5785C16.7859 18.5315 19.4486 22.5637 20.7566 24.5433L23.132 28.1415L23.2523 28.0624C24.3168 27.3703 25.4429 26.3849 26.3342 25.3585C28.2316 23.1796 29.4545 20.5227 29.8651 17.6899C29.9854 16.8659 30 16.6225 30 15.5051C30 14.3879 29.9854 14.1445 29.8651 13.3204C29.0499 7.68696 25.041 2.95382 19.6041 1.20016C18.6451 0.889306 17.6246 0.67523 16.481 0.546197C16.1994 0.516872 14.261 0.484614 14.0176 0.508074ZM20.1584 9.58139C20.2991 9.65178 20.4135 9.78666 20.4545 9.92743C20.478 10.0037 20.4839 11.6342 20.478 15.3086L20.4692 20.5814L19.5396 19.1561L18.607 17.731V13.8981C18.607 11.4201 18.6187 10.0271 18.6364 9.95969C18.6833 9.79546 18.7859 9.66644 18.9266 9.59019C19.0469 9.5286 19.0909 9.52274 19.5514 9.52274C19.9854 9.52274 20.0616 9.5286 20.1584 9.58139Z" fill="#DCDDDE"/>
</svg>
