<svg width="31" height="31" viewBox="0 0 31 31" fill="none" xmlns="http://www.w3.org/2000/svg">
<g clip-path="url(#clip0_39_331)">
<path fill-rule="evenodd" clip-rule="evenodd" d="M4.2648 19.6287C1.9094 13.7129 5.01355 6.92105 11.1981 4.45862C17.3827 1.99622 24.3057 4.7957 26.6611 10.7115C28.1322 14.4062 27.4737 18.4427 25.2651 21.5529L9.72002 12.0121C9.43081 11.8346 9.05054 11.8619 8.7792 12.0797C8.50786 12.2975 8.40765 12.6558 8.53125 12.9663L12.7961 23.6777L14.2891 23.0832L10.9116 14.6001L24.2573 22.791C23.0425 24.0987 21.5135 25.1706 19.7278 25.8816C13.5432 28.344 6.62018 25.5444 4.2648 19.6287ZM20.6173 17.2544L17.2054 8.68521L18.6985 8.09072L22.1104 16.6599L20.6173 17.2544Z" fill="#E8E8E8"/>
</g>
<defs>
<clipPath id="clip0_39_331">
<rect width="24.1063" height="23.0586" fill="white" transform="translate(-3.05176e-05 8.91724) rotate(-21.7103)"/>
</clipPath>
</defs>
</svg>
