<svg width="64" height="62" viewBox="0 0 64 62" fill="none" xmlns="http://www.w3.org/2000/svg">
<g clip-path="url(#clip0_39_316)">
<path d="M29.9692 5.98092L31.9573 5.85169L33.6234 5.9392L35.0191 6.18669L36.1335 6.55481L37.0293 7.02615L37.7372 7.54975L38.2517 8.10594L38.6246 8.63797L38.8504 9.12615L39.0016 9.50794L39.0519 9.76945L41.9738 20.2731L42.2142 21.5413L42.2438 22.6987L42.0571 23.7254L41.7223 24.6238L41.2657 25.4078L40.7137 26.0912L40.0871 26.6681L39.4331 27.1468L38.799 27.5351L38.211 27.847L37.6902 28.0766L37.2628 28.2379L24.801 31.7046L23.3881 32.2036L22.2331 32.8216L21.3098 33.5447L20.6017 34.3139L20.0879 35.1349L19.7159 35.9801L19.4954 36.8044L19.3847 37.6193L19.3675 38.3658L19.3965 39.0359L19.4607 39.5902L19.5339 40.0149L21.2083 46.0338L16.5534 47.3287L16.0986 47.3917L15.4758 47.4166L14.7422 47.3664L13.9131 47.2155L13.0194 46.9132L12.0709 46.4141L11.0886 45.7125L10.0978 44.7378L9.11388 43.4646L8.194 41.8556L7.32722 39.8715L6.54981 37.4812L6.00749 35.0466L5.7724 32.9081L5.79733 31.0574L6.07679 29.4751L6.51636 28.1448L7.11056 27.0471L7.8067 26.1541L8.55208 25.4381L9.29949 24.8912L9.99624 24.4854L10.6369 24.2012L11.1324 24.0422L11.4663 23.9493L11.5971 23.9341L28.6303 19.1957L28.1761 17.5631L15.9857 20.9543L14.46 15.551L14.2158 14.8348L14.1341 14.137L14.1941 13.4634L14.3958 12.8139L14.7754 12.1573L15.2966 11.5249L15.9804 10.9108L16.8003 10.3013L17.7828 9.71007L18.9279 9.13724L20.2091 8.5689L21.6583 8.03859L23.2437 7.51278L24.9862 6.98567L27.6646 6.34654L29.9692 5.98092ZM17.902 13.5339L17.6025 14.3165L17.6598 15.1694L18.0512 15.9294L18.7173 16.4646L19.5265 16.7058L20.4316 16.6447L21.2382 16.2296L21.8067 15.6052L22.1007 14.8029L22.0434 13.95L21.652 13.19L20.9914 12.6744L20.1821 12.4333L19.2771 12.4944L18.4705 12.9095L17.902 13.5339ZM47.3875 13.7022L48.0048 13.6576L48.7384 13.7079L49.5675 13.8587L50.4667 14.1807L51.4097 14.6601L52.3975 15.3813L53.3883 16.356L54.3722 17.6293L55.2921 19.2383L56.1534 21.2027L56.9308 23.593L57.4786 26.0473L57.7137 28.1858L57.6833 30.0168L57.4038 31.5992L56.9642 32.9294L56.3755 34.0468L55.6794 34.9398L54.934 35.6557L54.1866 36.2027L53.4844 36.5888L52.8437 36.873L52.3537 37.0517L52.0143 37.1249L34.8558 41.8982L35.3045 43.5111L47.4949 40.1199L49.026 45.5429L49.2648 46.2394L49.3464 46.9372L49.2865 47.6109L49.0903 48.28L48.7052 48.9169L48.1895 49.569L47.5057 50.1831L46.6803 50.7729L45.6978 51.3641L44.5582 51.9567L43.2715 52.5053L41.8278 53.0553L40.2423 53.5811L38.4944 54.0885L35.8215 54.7473L33.5114 55.0933L31.5233 55.2225L29.8627 55.1547L28.467 54.9072L27.3471 54.5194L26.4513 54.0481L25.7434 53.5245L25.2288 52.9683L24.856 52.4362L24.6357 51.9677L24.4845 51.5859L24.4342 51.3244L21.5122 40.8208L21.2664 39.5329L21.2423 38.3952L21.4289 37.3685L21.7637 36.4701L22.2149 35.6664L22.7724 35.0027L23.3935 34.4061L24.0475 33.9275L24.6816 33.5391L25.275 33.2469L25.7959 33.0173L26.2233 32.856L26.4892 32.7608L38.6796 29.3696L40.0925 28.8706L41.2475 28.2526L42.1763 27.5492L42.8789 26.7604L43.3927 25.9393L43.7647 25.0941L43.9852 24.2698L44.1014 23.4746L44.1186 22.7281L44.0896 22.058L44.0199 21.484L43.9467 21.0594L42.2723 15.0404L46.635 13.8268L46.9327 13.7651L47.3875 13.7022ZM41.6794 45.4887L41.3799 46.2713L41.4372 47.1242L41.8286 47.8842L42.4892 48.3998L43.3039 48.6606L44.2035 48.5798L45.0156 48.1844L45.5786 47.5404L45.8781 46.7577L45.8208 45.9048L45.4294 45.1448L44.7688 44.6292L43.9541 44.3685L43.0544 44.4492L42.2424 44.8446L41.6794 45.4887Z" fill="#E8E8E8"/>
</g>
<defs>
<clipPath id="clip0_39_316">
<rect width="52" height="49" fill="white" transform="translate(0 13.9365) rotate(-15.5459)"/>
</clipPath>
</defs>
</svg>
