<svg width="65" height="63" viewBox="0 0 65 63" fill="none" xmlns="http://www.w3.org/2000/svg">
<g clip-path="url(#clip0_38_295)">
<path fill-rule="evenodd" clip-rule="evenodd" d="M20.5533 13.5911C19.0245 13.4971 17.9739 13.8271 17.2768 14.3888C16.5796 14.9505 16.0641 15.8822 15.9092 17.3329C15.7531 18.7941 15.9838 20.6533 16.659 22.8153C16.7684 23.1656 16.8889 23.5217 17.0201 23.883C18.8195 23.0335 20.7802 22.25 22.8668 21.5532C23.9405 19.2837 25.1269 17.1917 26.3848 15.3297C26.2931 15.2857 26.2018 15.2425 26.1106 15.2001C23.9817 14.2093 22.0933 13.6858 20.5533 13.5911ZM28.5629 12.4218C28.3069 12.2938 28.052 12.1708 27.7983 12.0527C25.4049 10.9387 23.0446 10.2333 20.8775 10.1C18.6992 9.96602 16.5843 10.4087 14.9255 11.7452C13.2667 13.0817 12.4589 14.9939 12.2381 17.0608C12.0184 19.1172 12.3597 21.4493 13.1189 23.8799C13.2969 24.4497 13.4992 25.0294 13.7253 25.6175C13.1543 25.9534 12.6074 26.2963 12.0866 26.645C9.86414 28.133 8.03729 29.7796 6.83704 31.526C5.63064 33.2813 4.99067 35.2466 5.40649 37.239C5.82231 39.2314 7.19495 40.7767 9.00272 41.9029C10.8013 43.0234 13.1342 43.8018 15.7664 44.2769C16.3832 44.388 17.0215 44.4836 17.6792 44.5631C17.7072 45.1925 17.7536 45.8048 17.8185 46.3983C18.0948 48.9296 18.7148 51.2035 19.7387 53.0006C20.7678 54.8066 22.273 56.2359 24.3279 56.7973C26.3829 57.359 28.4982 56.9186 30.4411 55.9246C32.374 54.9355 34.2551 53.3449 36.0032 51.3667C36.1884 51.1569 36.3729 50.9424 36.5564 50.7226C36.8125 50.8506 37.0673 50.9735 37.321 51.0917C39.7144 52.2055 42.0747 52.911 44.2419 53.0443C46.4201 53.1782 48.5348 52.7358 50.1937 51.399C51.8525 50.0626 52.6606 48.1505 52.8814 46.0836C53.1009 44.027 52.7596 41.695 52.0004 39.2645C51.8225 38.6946 51.6202 38.1148 51.394 37.5268C51.965 37.1909 52.5119 36.8479 53.0331 36.4992C55.2554 35.0111 57.0823 33.3645 58.2827 31.6181C59.4889 29.8629 60.129 27.8975 59.7132 25.9051C59.2974 23.9127 57.9245 22.3674 56.117 21.2412C54.3183 20.1207 51.9853 19.3423 49.3533 18.8674C48.7362 18.7561 48.0977 18.6606 47.44 18.581C47.4118 17.9517 47.3656 17.3394 47.3007 16.7461C47.0244 14.2147 46.4044 11.9407 45.3807 10.1439C44.3516 8.33781 42.8462 6.90838 40.7912 6.34695C38.7362 5.78552 36.6209 6.22572 34.6781 7.21981C32.7452 8.20881 30.8641 9.79938 29.116 11.7777C28.9308 11.9873 28.7464 12.2021 28.5629 12.4218ZM29.5358 17.0832C28.886 18.0393 28.2513 19.071 27.6402 20.1699C28.4364 19.9725 29.2451 19.7878 30.0647 19.6167C30.8842 19.4457 31.6992 19.2915 32.5077 19.1541C31.5081 18.3913 30.5137 17.6996 29.5358 17.0832ZM37.4359 18.5125C35.5441 16.862 33.62 15.4191 31.7223 14.2158C31.7888 14.1388 31.8552 14.0626 31.9218 13.9873C33.4766 12.2277 34.9981 10.9926 36.3716 10.2898C37.7353 9.59207 38.8302 9.47435 39.6936 9.71032C40.5574 9.94624 41.4025 10.594 42.1246 11.8617C42.852 13.1385 43.3845 14.9347 43.6303 17.1863C43.6702 17.5511 43.7023 17.9256 43.7264 18.3092C41.7374 18.2504 39.6271 18.3165 37.4359 18.5125ZM36.0723 22.1645C34.3566 22.3678 32.5846 22.6554 30.7776 23.0325C28.9705 23.4097 27.2312 23.8549 25.5773 24.3548C24.9135 25.8783 24.3 27.4871 23.7522 29.1658C23.2533 30.6946 22.8348 32.2021 22.4938 33.6729C23.3946 34.8845 24.3813 36.0988 25.45 37.3004C26.6235 38.6199 27.8293 39.849 29.0469 40.9798C30.7627 40.7764 32.5349 40.4889 34.3421 40.1117C36.1491 39.7346 37.8882 39.2893 39.542 38.7894C40.2057 37.266 40.8192 35.6573 41.367 33.9785C41.8659 32.4497 42.2844 30.9422 42.6254 29.4714C41.7246 28.2598 40.738 27.0455 39.6694 25.8439C38.4958 24.5244 37.29 23.2952 36.0723 22.1645ZM43.4853 24.674C43.1682 24.2987 42.8442 23.9247 42.5134 23.5526C41.9808 22.9541 41.441 22.3715 40.8949 21.8057C41.8737 21.7783 42.823 21.7811 43.7382 21.8127C43.6918 22.7345 43.6079 23.6902 43.4853 24.674ZM45.3324 33.5243C45.1919 33.9952 45.0445 34.4675 44.8898 34.9411C44.6414 35.7024 44.3797 36.4523 44.1054 37.1893C45.0135 36.8229 45.8824 36.4406 46.7086 36.0455C46.2974 35.2192 45.8383 34.3769 45.3324 33.5243ZM49.9534 34.2952C49.0194 32.4452 47.8796 30.548 46.5525 28.6517C47.0103 26.383 47.2962 24.1882 47.4122 22.1191C47.8128 22.1742 48.2028 22.2362 48.5825 22.3046C50.9235 22.727 52.7627 23.3822 54.0408 24.1784C55.3097 24.9688 55.918 25.8233 56.0927 26.6607C56.2675 27.498 56.0518 28.5245 55.2049 29.7565C54.352 30.9974 52.9284 32.3336 50.9517 33.6571C50.6312 33.8716 50.2985 34.0844 49.9534 34.2952ZM48.0991 39.2613C46.2997 40.1106 44.3392 40.8944 42.2525 41.5912C41.1788 43.8606 39.9924 45.9526 38.7344 47.8145C38.8261 47.8585 38.9176 47.9018 39.0087 47.9441C41.1376 48.9349 43.0261 49.4586 44.566 49.5532C46.0949 49.6473 47.1455 49.3172 47.8425 48.7557C48.5398 48.1939 49.0552 47.2621 49.21 45.8115C49.3664 44.3502 49.1355 42.4909 48.4603 40.3291C48.3509 39.9788 48.2304 39.6225 48.0991 39.2613ZM35.5835 46.0611C36.2333 45.1049 36.868 44.0731 37.4791 42.9742C36.683 43.1717 35.8745 43.3565 35.055 43.5275C34.2353 43.6986 33.4202 43.8526 32.6114 43.9901C33.6111 44.7528 34.6055 45.4446 35.5835 46.0611ZM24.2243 41.3384C23.6782 40.7727 23.1383 40.1901 22.6061 39.5917C22.2751 39.2196 21.951 38.8456 21.6338 38.4702C21.5114 39.4539 21.4275 40.4095 21.381 41.3313C22.2961 41.363 23.2455 41.3658 24.2243 41.3384ZM21.3928 44.835C23.3817 44.8936 25.4922 44.8275 27.6832 44.6315C29.575 46.282 31.4993 47.7251 33.397 48.9285C33.3305 49.0055 33.264 49.0817 33.1974 49.1569C31.6425 50.9165 30.1212 52.1519 28.7476 52.8546C27.384 53.5523 26.2891 53.67 25.4255 53.4342C24.5619 53.1981 23.7168 52.5503 22.9945 51.2827C22.267 50.0059 21.7347 48.2095 21.4889 45.9581C21.4491 45.5932 21.417 45.2185 21.3928 44.835ZM17.707 41.025C17.823 38.9558 18.1088 36.7612 18.5666 34.4925C17.2395 32.5962 16.0998 30.6991 15.1658 28.8491C14.821 29.0598 14.4883 29.2726 14.168 29.487C12.1912 30.8105 10.7675 32.1467 9.91465 33.3876C9.0679 34.6196 8.85218 35.6461 9.02694 36.4834C9.20169 37.3207 9.80998 38.1753 11.0788 38.9657C12.3568 39.7619 14.1961 40.4171 16.5373 40.8394C16.9166 40.9079 17.3067 40.9698 17.707 41.025ZM18.4106 27.0988C18.822 27.925 19.2811 28.7673 19.7867 29.6199C19.9272 29.1491 20.0748 28.6768 20.2292 28.2033C20.4777 27.4419 20.7396 26.692 21.0138 25.955C20.1058 26.3214 19.2367 26.7037 18.4106 27.0988ZM27.1292 32.7054C26.5386 29.8757 28.4912 27.0743 31.4905 26.4483C34.4898 25.8224 37.3999 27.6089 37.9905 30.4387C38.5811 33.2684 36.6285 36.0698 33.6292 36.6958C30.6299 37.3217 27.7197 35.5352 27.1292 32.7054ZM32.2034 29.8642C31.2036 30.0728 30.5528 31.0066 30.7496 31.9499C30.9465 32.8931 31.9165 33.4886 32.9163 33.28C33.916 33.0713 34.5669 32.1375 34.3701 31.1943C34.1732 30.251 33.2031 29.6555 32.2034 29.8642Z" fill="#E8E8E8"/>
</g>
<defs>
<clipPath id="clip0_38_295">
<rect width="55.4768" height="52.3412" fill="white" transform="translate(5.34058e-05 11.3339) rotate(-11.7885)"/>
</clipPath>
</defs>
</svg>
