<svg width="25" height="15" viewBox="0 0 25 15" fill="none" xmlns="http://www.w3.org/2000/svg">
<path fill-rule="evenodd" clip-rule="evenodd" d="M12.5 0.0450439C9.16625 0.0450439 7.08375 1.70129 6.25 5.01504C7.5 3.35879 8.95875 2.73754 10.625 3.15129C11.5762 3.38754 12.2562 4.07379 13.0075 4.83254C14.2337 6.06879 15.6525 7.50004 18.75 7.50004C22.0837 7.50004 24.1662 5.84379 25 2.53004C23.75 4.18629 22.2925 4.80754 20.625 4.39379C19.6737 4.15754 18.9937 3.47129 18.2412 2.71254C17.0162 1.47504 15.5987 0.0450439 12.5 0.0450439ZM6.25 7.50004C2.91625 7.50004 0.83375 9.15629 0 12.47C1.25 10.8125 2.70875 10.1925 4.375 10.6063C5.32625 10.8425 6.00625 11.5288 6.75875 12.2875C7.98375 13.5238 9.4025 14.955 12.5012 14.955C15.835 14.955 17.9175 13.2988 18.7512 9.98504C17.5012 11.6413 16.0425 12.2625 14.3762 11.8488C13.425 11.6125 12.745 10.9263 11.9937 10.1675C10.7662 8.93129 9.3475 7.50004 6.25 7.50004Z" fill="#DCDDDE"/>
</svg>
