<svg width="115" height="98" viewBox="0 0 115 98" fill="none" xmlns="http://www.w3.org/2000/svg">
<path d="M32.8284 1.67157C31.2663 0.109475 28.7337 0.109476 27.1716 1.67157L1.71573 27.1274C0.153638 28.6895 0.153639 31.2222 1.71574 32.7843C3.27783 34.3464 5.81049 34.3464 7.37259 32.7843L30 10.1569L52.6274 32.7843C54.1895 34.3464 56.7222 34.3464 58.2843 32.7843C59.8464 31.2222 59.8464 28.6895 58.2843 27.1274L32.8284 1.67157ZM26 4.5C26 24.6295 27.2704 39.5573 29.5666 50.441C31.843 61.2305 35.2357 68.5864 39.9354 72.9477C44.8986 77.5534 50.7369 78.3105 56.3933 77.2095C61.8292 76.1514 67.3832 73.3388 72.4591 70.4875C77.7726 67.5027 82.4976 64.5239 87.0762 62.3665C91.7109 60.1827 95.0473 59.4398 97.4229 60.0019C99.3516 60.4583 101.751 62.083 103.73 67.9455C105.734 73.8821 107 83.3841 107 98L115 98C115 83.1159 113.735 72.5711 111.31 65.3866C108.859 58.128 104.93 53.5574 99.265 52.2169C94.0468 50.9821 88.5239 52.8408 83.6663 55.1296C78.7527 57.4449 73.3527 60.8098 68.5411 63.5125C63.4921 66.3487 58.9211 68.5673 54.8647 69.3569C51.0289 70.1035 48.0078 69.5247 45.3772 67.0836C42.4831 64.398 39.5477 58.996 37.3943 48.7895C35.2608 38.6771 34 24.3705 34 4.5L26 4.5Z" fill="#5588A3"/>
</svg>
