<svg width="236" height="63" viewBox="0 0 236 63" fill="none" xmlns="http://www.w3.org/2000/svg">
<path d="M14.46 30.28C13.4333 30.28 12.5 30.1067 11.66 29.76C10.8333 29.4 10.1467 28.8867 9.6 28.22L11.76 25.66C12.1333 26.14 12.52 26.5067 12.92 26.76C13.32 27 13.74 27.12 14.18 27.12C15.3533 27.12 15.94 26.44 15.94 25.08V19.06H11.1V16H19.86V24.84C19.86 26.6667 19.4 28.0333 18.48 28.94C17.56 29.8333 16.22 30.28 14.46 30.28ZM26.9128 30.18C26.0328 30.18 25.2395 30.0067 24.5328 29.66C23.8395 29.3133 23.2928 28.7733 22.8928 28.04C22.5061 27.2933 22.3128 26.3533 22.3128 25.22V19.16H26.1128V24.6C26.1128 25.44 26.2661 26.04 26.5728 26.4C26.8928 26.76 27.3395 26.94 27.9128 26.94C28.2861 26.94 28.6261 26.8533 28.9328 26.68C29.2395 26.5067 29.4861 26.2333 29.6728 25.86C29.8595 25.4733 29.9528 24.98 29.9528 24.38V19.16H33.7528V30H30.1328V26.94L30.8328 27.8C30.4595 28.6 29.9195 29.2 29.2128 29.6C28.5061 29.9867 27.7395 30.18 26.9128 30.18ZM36.2005 30V15.16H40.0005V30H36.2005ZM42.47 30V19.16H46.27V30H42.47ZM44.37 17.96C43.6767 17.96 43.1167 17.7667 42.69 17.38C42.2633 16.9933 42.05 16.5133 42.05 15.94C42.05 15.3667 42.2633 14.8867 42.69 14.5C43.1167 14.1133 43.6767 13.92 44.37 13.92C45.0633 13.92 45.6233 14.1067 46.05 14.48C46.4767 14.84 46.69 15.3067 46.69 15.88C46.69 16.48 46.4767 16.98 46.05 17.38C45.6367 17.7667 45.0767 17.96 44.37 17.96ZM55.3595 30V27.98L55.0995 27.48V23.76C55.0995 23.16 54.9129 22.7 54.5395 22.38C54.1795 22.0467 53.5995 21.88 52.7995 21.88C52.2795 21.88 51.7529 21.9667 51.2195 22.14C50.6862 22.3 50.2329 22.5267 49.8595 22.82L48.5795 20.24C49.1929 19.84 49.9262 19.5333 50.7795 19.32C51.6462 19.0933 52.5062 18.98 53.3595 18.98C55.1195 18.98 56.4795 19.3867 57.4395 20.2C58.4129 21 58.8995 22.26 58.8995 23.98V30H55.3595ZM52.1595 30.18C51.2929 30.18 50.5595 30.0333 49.9595 29.74C49.3595 29.4467 48.8995 29.0467 48.5795 28.54C48.2729 28.0333 48.1195 27.4667 48.1195 26.84C48.1195 26.1733 48.2862 25.6 48.6195 25.12C48.9662 24.6267 49.4929 24.2533 50.1995 24C50.9062 23.7333 51.8195 23.6 52.9395 23.6H55.4995V25.58H53.4595C52.8462 25.58 52.4129 25.68 52.1595 25.88C51.9195 26.08 51.7995 26.3467 51.7995 26.68C51.7995 27.0133 51.9262 27.28 52.1795 27.48C52.4329 27.68 52.7795 27.78 53.2195 27.78C53.6329 27.78 54.0062 27.68 54.3395 27.48C54.6862 27.2667 54.9395 26.9467 55.0995 26.52L55.6195 27.92C55.4195 28.6667 55.0262 29.2333 54.4395 29.62C53.8662 29.9933 53.1062 30.18 52.1595 30.18ZM51.8195 17.86L54.4995 14.82H58.2995L54.5395 17.86H51.8195ZM68.3581 18.98C69.1981 18.98 69.9581 19.1533 70.6381 19.5C71.3181 19.8333 71.8515 20.3533 72.2381 21.06C72.6381 21.7667 72.8381 22.68 72.8381 23.8V30H69.0381V24.42C69.0381 23.6467 68.8781 23.0867 68.5581 22.74C68.2515 22.38 67.8181 22.2 67.2581 22.2C66.8581 22.2 66.4915 22.2933 66.1581 22.48C65.8248 22.6533 65.5648 22.9267 65.3781 23.3C65.1915 23.6733 65.0981 24.16 65.0981 24.76V30H61.2981V19.16H64.9181V22.24L64.2181 21.34C64.6315 20.5533 65.1981 19.9667 65.9181 19.58C66.6381 19.18 67.4515 18.98 68.3581 18.98ZM81.2242 30V16H88.3842C90.2242 16 91.5976 16.34 92.5042 17.02C93.4109 17.6867 93.8642 18.5667 93.8642 19.66C93.8642 20.38 93.6709 21.0133 93.2842 21.56C92.9109 22.0933 92.3776 22.52 91.6842 22.84C91.0042 23.1467 90.1909 23.3 89.2442 23.3L89.6442 22.34C90.6309 22.34 91.4909 22.4933 92.2242 22.8C92.9576 23.0933 93.5242 23.5267 93.9242 24.1C94.3376 24.66 94.5442 25.3467 94.5442 26.16C94.5442 27.3733 94.0509 28.32 93.0642 29C92.0909 29.6667 90.6642 30 88.7842 30H81.2242ZM85.1442 27.14H88.4642C89.1442 27.14 89.6576 27.0267 90.0042 26.8C90.3642 26.56 90.5442 26.2 90.5442 25.72C90.5442 25.24 90.3642 24.8867 90.0042 24.66C89.6576 24.42 89.1442 24.3 88.4642 24.3H84.8642V21.56H87.8642C88.5309 21.56 89.0309 21.4467 89.3642 21.22C89.6976 20.9933 89.8642 20.6533 89.8642 20.2C89.8642 19.7467 89.6976 19.4133 89.3642 19.2C89.0309 18.9733 88.5309 18.86 87.8642 18.86H85.1442V27.14ZM102.095 30.18C100.815 30.18 99.6953 29.94 98.7353 29.46C97.7886 28.9667 97.0486 28.3 96.5153 27.46C95.9953 26.6067 95.7353 25.64 95.7353 24.56C95.7353 23.48 95.9886 22.52 96.4953 21.68C97.0153 20.8267 97.7286 20.1667 98.6353 19.7C99.542 19.22 100.562 18.98 101.695 18.98C102.762 18.98 103.735 19.2 104.615 19.64C105.495 20.0667 106.195 20.7 106.715 21.54C107.235 22.38 107.495 23.4 107.495 24.6C107.495 24.7333 107.489 24.8867 107.475 25.06C107.462 25.2333 107.449 25.3933 107.435 25.54H98.8553V23.54H105.415L103.975 24.1C103.989 23.6067 103.895 23.18 103.695 22.82C103.509 22.46 103.242 22.18 102.895 21.98C102.562 21.78 102.169 21.68 101.715 21.68C101.262 21.68 100.862 21.78 100.515 21.98C100.182 22.18 99.922 22.4667 99.7353 22.84C99.5486 23.2 99.4553 23.6267 99.4553 24.12V24.7C99.4553 25.2333 99.562 25.6933 99.7753 26.08C100.002 26.4667 100.322 26.7667 100.735 26.98C101.149 27.18 101.642 27.28 102.215 27.28C102.749 27.28 103.202 27.2067 103.575 27.06C103.962 26.9 104.342 26.66 104.715 26.34L106.715 28.42C106.195 28.9933 105.555 29.4333 104.795 29.74C104.035 30.0333 103.135 30.18 102.095 30.18ZM109.247 30V19.16H112.867V22.32L112.327 21.42C112.647 20.6067 113.167 20 113.887 19.6C114.607 19.1867 115.481 18.98 116.507 18.98V22.4C116.334 22.3733 116.181 22.36 116.047 22.36C115.927 22.3467 115.794 22.34 115.647 22.34C114.874 22.34 114.247 22.5533 113.767 22.98C113.287 23.3933 113.047 24.0733 113.047 25.02V30H109.247ZM125.135 18.98C125.975 18.98 126.735 19.1533 127.415 19.5C128.095 19.8333 128.629 20.3533 129.015 21.06C129.415 21.7667 129.615 22.68 129.615 23.8V30H125.815V24.42C125.815 23.6467 125.655 23.0867 125.335 22.74C125.029 22.38 124.595 22.2 124.035 22.2C123.635 22.2 123.269 22.2933 122.935 22.48C122.602 22.6533 122.342 22.9267 122.155 23.3C121.969 23.6733 121.875 24.16 121.875 24.76V30H118.075V19.16H121.695V22.24L120.995 21.34C121.409 20.5533 121.975 19.9667 122.695 19.58C123.415 19.18 124.229 18.98 125.135 18.98ZM138.621 30V27.98L138.361 27.48V23.76C138.361 23.16 138.175 22.7 137.801 22.38C137.441 22.0467 136.861 21.88 136.061 21.88C135.541 21.88 135.015 21.9667 134.481 22.14C133.948 22.3 133.495 22.5267 133.121 22.82L131.841 20.24C132.455 19.84 133.188 19.5333 134.041 19.32C134.908 19.0933 135.768 18.98 136.621 18.98C138.381 18.98 139.741 19.3867 140.701 20.2C141.675 21 142.161 22.26 142.161 23.98V30H138.621ZM135.421 30.18C134.555 30.18 133.821 30.0333 133.221 29.74C132.621 29.4467 132.161 29.0467 131.841 28.54C131.535 28.0333 131.381 27.4667 131.381 26.84C131.381 26.1733 131.548 25.6 131.881 25.12C132.228 24.6267 132.755 24.2533 133.461 24C134.168 23.7333 135.081 23.6 136.201 23.6H138.761V25.58H136.721C136.108 25.58 135.675 25.68 135.421 25.88C135.181 26.08 135.061 26.3467 135.061 26.68C135.061 27.0133 135.188 27.28 135.441 27.48C135.695 27.68 136.041 27.78 136.481 27.78C136.895 27.78 137.268 27.68 137.601 27.48C137.948 27.2667 138.201 26.9467 138.361 26.52L138.881 27.92C138.681 28.6667 138.288 29.2333 137.701 29.62C137.128 29.9933 136.368 30.18 135.421 30.18ZM144.56 30V15.16H148.36V30H144.56Z" fill="#E8E8E8" fill-opacity="0.7"/>
<path d="M66.77 54.0436C65.71 54.0436 64.745 53.8736 63.875 53.5336C63.005 53.1936 62.255 52.7136 61.625 52.0936C60.995 51.4736 60.51 50.7486 60.17 49.9186C59.83 49.0786 59.66 48.1636 59.66 47.1736C59.66 46.1836 59.83 45.2736 60.17 44.4436C60.51 43.6136 60.995 42.8936 61.625 42.2836C62.265 41.6736 63.025 41.1986 63.905 40.8586C64.785 40.5186 65.76 40.3486 66.83 40.3486C67.86 40.3486 68.805 40.5136 69.665 40.8436C70.525 41.1636 71.265 41.6186 71.885 42.2086C72.515 42.7886 73 43.4786 73.34 44.2786C73.69 45.0786 73.865 45.9586 73.865 46.9186C73.865 47.7786 73.75 48.5236 73.52 49.1536C73.29 49.7736 72.96 50.2486 72.53 50.5786C72.11 50.9086 71.595 51.0736 70.985 51.0736C70.365 51.0736 69.87 50.8886 69.5 50.5186C69.14 50.1486 68.96 49.6136 68.96 48.9136V48.0586L69.02 47.2036L68.885 45.2536V43.5436H70.55V48.6436C70.55 49.0236 70.625 49.2936 70.775 49.4536C70.935 49.6036 71.12 49.6786 71.33 49.6786C71.6 49.6786 71.83 49.5736 72.02 49.3636C72.21 49.1536 72.35 48.8436 72.44 48.4336C72.54 48.0236 72.59 47.5286 72.59 46.9486C72.59 46.1486 72.45 45.4186 72.17 44.7586C71.9 44.0986 71.505 43.5336 70.985 43.0636C70.475 42.5836 69.865 42.2186 69.155 41.9686C68.455 41.7086 67.68 41.5786 66.83 41.5786C65.96 41.5786 65.17 41.7186 64.46 41.9986C63.75 42.2686 63.14 42.6536 62.63 43.1536C62.12 43.6536 61.725 44.2486 61.445 44.9386C61.175 45.6186 61.04 46.3636 61.04 47.1736C61.04 48.0036 61.175 48.7636 61.445 49.4536C61.715 50.1436 62.1 50.7336 62.6 51.2236C63.11 51.7236 63.715 52.1086 64.415 52.3786C65.115 52.6586 65.9 52.7986 66.77 52.7986C67.23 52.7986 67.715 52.7436 68.225 52.6336C68.735 52.5336 69.22 52.3686 69.68 52.1386L70.085 53.3386C69.625 53.5686 69.095 53.7436 68.495 53.8636C67.895 53.9836 67.32 54.0436 66.77 54.0436ZM66.38 51.0736C65.69 51.0736 65.075 50.9136 64.535 50.5936C63.995 50.2636 63.565 49.8136 63.245 49.2436C62.935 48.6636 62.78 47.9986 62.78 47.2486C62.78 46.5086 62.935 45.8536 63.245 45.2836C63.555 44.7036 63.98 44.2536 64.52 43.9336C65.07 43.6136 65.69 43.4536 66.38 43.4536C67.05 43.4536 67.635 43.6036 68.135 43.9036C68.635 44.1936 69.025 44.6186 69.305 45.1786C69.585 45.7386 69.725 46.4286 69.725 47.2486C69.725 48.0686 69.59 48.7636 69.32 49.3336C69.05 49.9036 68.665 50.3386 68.165 50.6386C67.665 50.9286 67.07 51.0736 66.38 51.0736ZM66.695 49.6186C67.125 49.6186 67.505 49.5286 67.835 49.3486C68.165 49.1586 68.425 48.8836 68.615 48.5236C68.815 48.1636 68.915 47.7386 68.915 47.2486C68.915 46.7486 68.815 46.3286 68.615 45.9886C68.425 45.6386 68.165 45.3736 67.835 45.1936C67.505 45.0036 67.125 44.9086 66.695 44.9086C66.255 44.9086 65.865 45.0036 65.525 45.1936C65.195 45.3836 64.935 45.6536 64.745 46.0036C64.565 46.3536 64.475 46.7686 64.475 47.2486C64.475 47.7386 64.565 48.1586 64.745 48.5086C64.935 48.8586 65.195 49.1336 65.525 49.3336C65.865 49.5236 66.255 49.6186 66.695 49.6186ZM80.1827 51.0886C79.5327 51.0886 78.9377 50.9386 78.3977 50.6386C77.8677 50.3386 77.4427 49.8886 77.1227 49.2886C76.8127 48.6786 76.6577 47.9086 76.6577 46.9786C76.6577 46.0386 76.8077 45.2686 77.1077 44.6686C77.4177 44.0686 77.8377 43.6236 78.3677 43.3336C78.8977 43.0336 79.5027 42.8836 80.1827 42.8836C80.9727 42.8836 81.6677 43.0536 82.2677 43.3936C82.8777 43.7336 83.3577 44.2086 83.7077 44.8186C84.0677 45.4286 84.2477 46.1486 84.2477 46.9786C84.2477 47.8086 84.0677 48.5336 83.7077 49.1536C83.3577 49.7636 82.8777 50.2386 82.2677 50.5786C81.6677 50.9186 80.9727 51.0886 80.1827 51.0886ZM75.7427 53.8936V42.9736H77.5277V44.8636L77.4677 46.9936L77.6177 49.1236V53.8936H75.7427ZM79.9727 49.4836C80.4227 49.4836 80.8227 49.3836 81.1727 49.1836C81.5327 48.9836 81.8177 48.6936 82.0277 48.3136C82.2377 47.9336 82.3427 47.4886 82.3427 46.9786C82.3427 46.4586 82.2377 46.0136 82.0277 45.6436C81.8177 45.2636 81.5327 44.9736 81.1727 44.7736C80.8227 44.5736 80.4227 44.4736 79.9727 44.4736C79.5227 44.4736 79.1177 44.5736 78.7577 44.7736C78.3977 44.9736 78.1127 45.2636 77.9027 45.6436C77.6927 46.0136 77.5877 46.4586 77.5877 46.9786C77.5877 47.4886 77.6927 47.9336 77.9027 48.3136C78.1127 48.6936 78.3977 48.9836 78.7577 49.1836C79.1177 49.3836 79.5227 49.4836 79.9727 49.4836ZM86.0259 50.9836V42.9736H87.8109V45.1786L87.6009 44.5336C87.8409 43.9936 88.2159 43.5836 88.7259 43.3036C89.2459 43.0236 89.8909 42.8836 90.6609 42.8836V44.6686C90.5809 44.6486 90.5059 44.6386 90.4359 44.6386C90.3659 44.6286 90.2959 44.6236 90.2259 44.6236C89.5159 44.6236 88.9509 44.8336 88.5309 45.2536C88.1109 45.6636 87.9009 46.2786 87.9009 47.0986V50.9836H86.0259ZM96.1494 51.1336C95.3194 51.1336 94.5694 50.9236 93.8994 50.5036C93.2394 50.0836 92.7194 49.4736 92.3394 48.6736C91.9594 47.8636 91.7694 46.8836 91.7694 45.7336C91.7694 44.5836 91.9594 43.6086 92.3394 42.8086C92.7194 41.9986 93.2394 41.3836 93.8994 40.9636C94.5694 40.5436 95.3194 40.3336 96.1494 40.3336C96.9894 40.3336 97.7394 40.5436 98.3994 40.9636C99.0594 41.3836 99.5794 41.9986 99.9594 42.8086C100.349 43.6086 100.544 44.5836 100.544 45.7336C100.544 46.8836 100.349 47.8636 99.9594 48.6736C99.5794 49.4736 99.0594 50.0836 98.3994 50.5036C97.7394 50.9236 96.9894 51.1336 96.1494 51.1336ZM96.1494 49.4386C96.6394 49.4386 97.0644 49.3086 97.4244 49.0486C97.7844 48.7786 98.0644 48.3686 98.2644 47.8186C98.4744 47.2686 98.5794 46.5736 98.5794 45.7336C98.5794 44.8836 98.4744 44.1886 98.2644 43.6486C98.0644 43.0986 97.7844 42.6936 97.4244 42.4336C97.0644 42.1636 96.6394 42.0286 96.1494 42.0286C95.6794 42.0286 95.2594 42.1636 94.8894 42.4336C94.5294 42.6936 94.2444 43.0986 94.0344 43.6486C93.8344 44.1886 93.7344 44.8836 93.7344 45.7336C93.7344 46.5736 93.8344 47.2686 94.0344 47.8186C94.2444 48.3686 94.5294 48.7786 94.8894 49.0486C95.2594 49.3086 95.6794 49.4386 96.1494 49.4386ZM112.542 42.8836C113.182 42.8836 113.747 43.0086 114.237 43.2586C114.737 43.5086 115.127 43.8936 115.407 44.4136C115.687 44.9236 115.827 45.5836 115.827 46.3936V50.9836H113.952V46.6336C113.952 45.9236 113.797 45.3936 113.487 45.0436C113.177 44.6936 112.732 44.5186 112.152 44.5186C111.742 44.5186 111.377 44.6086 111.057 44.7886C110.747 44.9686 110.502 45.2336 110.322 45.5836C110.152 45.9336 110.067 46.3786 110.067 46.9186V50.9836H108.192V46.6336C108.192 45.9236 108.037 45.3936 107.727 45.0436C107.417 44.6936 106.972 44.5186 106.392 44.5186C105.982 44.5186 105.617 44.6086 105.297 44.7886C104.987 44.9686 104.742 45.2336 104.562 45.5836C104.392 45.9336 104.307 46.3786 104.307 46.9186V50.9836H102.432V42.9736H104.217V45.1036L103.902 44.4736C104.172 43.9536 104.562 43.5586 105.072 43.2886C105.592 43.0186 106.182 42.8836 106.842 42.8836C107.592 42.8836 108.242 43.0686 108.792 43.4386C109.352 43.8086 109.722 44.3686 109.902 45.1186L109.167 44.8636C109.427 44.2636 109.857 43.7836 110.457 43.4236C111.057 43.0636 111.752 42.8836 112.542 42.8836ZM128.333 42.8836C128.973 42.8836 129.538 43.0086 130.028 43.2586C130.528 43.5086 130.918 43.8936 131.198 44.4136C131.478 44.9236 131.618 45.5836 131.618 46.3936V50.9836H129.743V46.6336C129.743 45.9236 129.588 45.3936 129.278 45.0436C128.968 44.6936 128.523 44.5186 127.943 44.5186C127.533 44.5186 127.168 44.6086 126.848 44.7886C126.538 44.9686 126.293 45.2336 126.113 45.5836C125.943 45.9336 125.858 46.3786 125.858 46.9186V50.9836H123.983V46.6336C123.983 45.9236 123.828 45.3936 123.518 45.0436C123.208 44.6936 122.763 44.5186 122.183 44.5186C121.773 44.5186 121.408 44.6086 121.088 44.7886C120.778 44.9686 120.533 45.2336 120.353 45.5836C120.183 45.9336 120.098 46.3786 120.098 46.9186V50.9836H118.223V42.9736H120.008V45.1036L119.693 44.4736C119.963 43.9536 120.353 43.5586 120.863 43.2886C121.383 43.0186 121.973 42.8836 122.633 42.8836C123.383 42.8836 124.033 43.0686 124.583 43.4386C125.143 43.8086 125.513 44.3686 125.693 45.1186L124.958 44.8636C125.218 44.2636 125.648 43.7836 126.248 43.4236C126.848 43.0636 127.543 42.8836 128.333 42.8836ZM134.014 50.9836V42.9736H135.889V50.9836H134.014ZM134.959 41.6536C134.609 41.6536 134.319 41.5436 134.089 41.3236C133.869 41.1036 133.759 40.8386 133.759 40.5286C133.759 40.2086 133.869 39.9436 134.089 39.7336C134.319 39.5136 134.609 39.4036 134.959 39.4036C135.309 39.4036 135.594 39.5086 135.814 39.7186C136.044 39.9186 136.159 40.1736 136.159 40.4836C136.159 40.8136 136.049 41.0936 135.829 41.3236C135.609 41.5436 135.319 41.6536 134.959 41.6536ZM142.895 42.8836C143.535 42.8836 144.105 43.0086 144.605 43.2586C145.115 43.5086 145.515 43.8936 145.805 44.4136C146.095 44.9236 146.24 45.5836 146.24 46.3936V50.9836H144.365V46.6336C144.365 45.9236 144.195 45.3936 143.855 45.0436C143.525 44.6936 143.06 44.5186 142.46 44.5186C142.02 44.5186 141.63 44.6086 141.29 44.7886C140.95 44.9686 140.685 45.2386 140.495 45.5986C140.315 45.9486 140.225 46.3936 140.225 46.9336V50.9836H138.35V42.9736H140.135V45.1336L139.82 44.4736C140.1 43.9636 140.505 43.5736 141.035 43.3036C141.575 43.0236 142.195 42.8836 142.895 42.8836ZM152.263 53.9986C151.523 53.9986 150.798 53.8986 150.088 53.6986C149.388 53.5086 148.813 53.2286 148.363 52.8586L149.203 51.4486C149.553 51.7386 149.993 51.9686 150.523 52.1386C151.063 52.3186 151.608 52.4086 152.158 52.4086C153.038 52.4086 153.683 52.2036 154.093 51.7936C154.503 51.3936 154.708 50.7886 154.708 49.9786V48.5536L154.858 46.7386L154.798 44.9236V42.9736H156.583V49.7686C156.583 51.2186 156.213 52.2836 155.473 52.9636C154.733 53.6536 153.663 53.9986 152.263 53.9986ZM152.023 50.6236C151.263 50.6236 150.573 50.4636 149.953 50.1436C149.343 49.8136 148.858 49.3586 148.498 48.7786C148.148 48.1986 147.973 47.5186 147.973 46.7386C147.973 45.9686 148.148 45.2936 148.498 44.7136C148.858 44.1336 149.343 43.6836 149.953 43.3636C150.573 43.0436 151.263 42.8836 152.023 42.8836C152.703 42.8836 153.313 43.0186 153.853 43.2886C154.393 43.5586 154.823 43.9786 155.143 44.5486C155.473 45.1186 155.638 45.8486 155.638 46.7386C155.638 47.6286 155.473 48.3636 155.143 48.9436C154.823 49.5136 154.393 49.9386 153.853 50.2186C153.313 50.4886 152.703 50.6236 152.023 50.6236ZM152.308 49.0336C152.778 49.0336 153.198 48.9386 153.568 48.7486C153.938 48.5486 154.223 48.2786 154.423 47.9386C154.633 47.5886 154.738 47.1886 154.738 46.7386C154.738 46.2886 154.633 45.8936 154.423 45.5536C154.223 45.2036 153.938 44.9386 153.568 44.7586C153.198 44.5686 152.778 44.4736 152.308 44.4736C151.838 44.4736 151.413 44.5686 151.033 44.7586C150.663 44.9386 150.373 45.2036 150.163 45.5536C149.963 45.8936 149.863 46.2886 149.863 46.7386C149.863 47.1886 149.963 47.5886 150.163 47.9386C150.373 48.2786 150.663 48.5486 151.033 48.7486C151.413 48.9386 151.838 49.0336 152.308 49.0336Z" fill="#E8E8E8" fill-opacity="0.7"/>
</svg>
