<svg width="149" height="47" viewBox="0 0 149 47" fill="none" xmlns="http://www.w3.org/2000/svg">
<path d="M5.46 19.28C4.43333 19.28 3.5 19.1067 2.66 18.76C1.83333 18.4 1.14667 17.8867 0.6 17.22L2.76 14.66C3.13333 15.14 3.52 15.5067 3.92 15.76C4.32 16 4.74 16.12 5.18 16.12C6.35333 16.12 6.94 15.44 6.94 14.08V8.06H2.1V5H10.86V13.84C10.86 15.6667 10.4 17.0333 9.48 17.94C8.56 18.8333 7.22 19.28 5.46 19.28ZM17.9128 19.18C17.0328 19.18 16.2395 19.0067 15.5328 18.66C14.8395 18.3133 14.2928 17.7733 13.8928 17.04C13.5061 16.2933 13.3128 15.3533 13.3128 14.22V8.16H17.1128V13.6C17.1128 14.44 17.2661 15.04 17.5728 15.4C17.8928 15.76 18.3395 15.94 18.9128 15.94C19.2861 15.94 19.6261 15.8533 19.9328 15.68C20.2395 15.5067 20.4861 15.2333 20.6728 14.86C20.8595 14.4733 20.9528 13.98 20.9528 13.38V8.16H24.7528V19H21.1328V15.94L21.8328 16.8C21.4595 17.6 20.9195 18.2 20.2128 18.6C19.5061 18.9867 18.7395 19.18 17.9128 19.18ZM27.2005 19V4.16H31.0005V19H27.2005ZM33.47 19V8.16H37.27V19H33.47ZM35.37 6.96C34.6767 6.96 34.1167 6.76667 33.69 6.38C33.2633 5.99333 33.05 5.51333 33.05 4.94C33.05 4.36667 33.2633 3.88667 33.69 3.5C34.1167 3.11333 34.6767 2.92 35.37 2.92C36.0633 2.92 36.6233 3.10667 37.05 3.48C37.4767 3.84 37.69 4.30667 37.69 4.88C37.69 5.48 37.4767 5.98 37.05 6.38C36.6367 6.76667 36.0767 6.96 35.37 6.96ZM46.3595 19V16.98L46.0995 16.48V12.76C46.0995 12.16 45.9129 11.7 45.5395 11.38C45.1795 11.0467 44.5995 10.88 43.7995 10.88C43.2795 10.88 42.7529 10.9667 42.2195 11.14C41.6862 11.3 41.2329 11.5267 40.8595 11.82L39.5795 9.24C40.1929 8.84 40.9262 8.53333 41.7795 8.32C42.6462 8.09333 43.5062 7.98 44.3595 7.98C46.1195 7.98 47.4795 8.38667 48.4395 9.2C49.4129 10 49.8995 11.26 49.8995 12.98V19H46.3595ZM43.1595 19.18C42.2929 19.18 41.5595 19.0333 40.9595 18.74C40.3595 18.4467 39.8995 18.0467 39.5795 17.54C39.2729 17.0333 39.1195 16.4667 39.1195 15.84C39.1195 15.1733 39.2862 14.6 39.6195 14.12C39.9662 13.6267 40.4929 13.2533 41.1995 13C41.9062 12.7333 42.8195 12.6 43.9395 12.6H46.4995V14.58H44.4595C43.8462 14.58 43.4129 14.68 43.1595 14.88C42.9195 15.08 42.7995 15.3467 42.7995 15.68C42.7995 16.0133 42.9262 16.28 43.1795 16.48C43.4329 16.68 43.7795 16.78 44.2195 16.78C44.6329 16.78 45.0062 16.68 45.3395 16.48C45.6862 16.2667 45.9395 15.9467 46.0995 15.52L46.6195 16.92C46.4195 17.6667 46.0262 18.2333 45.4395 18.62C44.8662 18.9933 44.1062 19.18 43.1595 19.18ZM42.8195 6.86L45.4995 3.82H49.2995L45.5395 6.86H42.8195ZM59.3581 7.98C60.1981 7.98 60.9581 8.15333 61.6381 8.5C62.3181 8.83333 62.8515 9.35333 63.2381 10.06C63.6381 10.7667 63.8381 11.68 63.8381 12.8V19H60.0381V13.42C60.0381 12.6467 59.8781 12.0867 59.5581 11.74C59.2515 11.38 58.8181 11.2 58.2581 11.2C57.8581 11.2 57.4915 11.2933 57.1581 11.48C56.8248 11.6533 56.5648 11.9267 56.3781 12.3C56.1915 12.6733 56.0981 13.16 56.0981 13.76V19H52.2981V8.16H55.9181V11.24L55.2181 10.34C55.6315 9.55333 56.1981 8.96667 56.9181 8.58C57.6381 8.18 58.4515 7.98 59.3581 7.98ZM72.2242 19V5H79.3842C81.2242 5 82.5976 5.34 83.5042 6.02C84.4109 6.68667 84.8642 7.56667 84.8642 8.66C84.8642 9.38 84.6709 10.0133 84.2842 10.56C83.9109 11.0933 83.3776 11.52 82.6842 11.84C82.0042 12.1467 81.1909 12.3 80.2442 12.3L80.6442 11.34C81.6309 11.34 82.4909 11.4933 83.2242 11.8C83.9576 12.0933 84.5242 12.5267 84.9242 13.1C85.3376 13.66 85.5442 14.3467 85.5442 15.16C85.5442 16.3733 85.0509 17.32 84.0642 18C83.0909 18.6667 81.6642 19 79.7842 19H72.2242ZM76.1442 16.14H79.4642C80.1442 16.14 80.6576 16.0267 81.0042 15.8C81.3642 15.56 81.5442 15.2 81.5442 14.72C81.5442 14.24 81.3642 13.8867 81.0042 13.66C80.6576 13.42 80.1442 13.3 79.4642 13.3H75.8642V10.56H78.8642C79.5309 10.56 80.0309 10.4467 80.3642 10.22C80.6976 9.99333 80.8642 9.65333 80.8642 9.2C80.8642 8.74667 80.6976 8.41333 80.3642 8.2C80.0309 7.97333 79.5309 7.86 78.8642 7.86H76.1442V16.14ZM93.0953 19.18C91.8153 19.18 90.6953 18.94 89.7353 18.46C88.7886 17.9667 88.0486 17.3 87.5153 16.46C86.9953 15.6067 86.7353 14.64 86.7353 13.56C86.7353 12.48 86.9886 11.52 87.4953 10.68C88.0153 9.82667 88.7286 9.16667 89.6353 8.7C90.542 8.22 91.562 7.98 92.6953 7.98C93.762 7.98 94.7353 8.2 95.6153 8.64C96.4953 9.06667 97.1953 9.7 97.7153 10.54C98.2353 11.38 98.4953 12.4 98.4953 13.6C98.4953 13.7333 98.4886 13.8867 98.4753 14.06C98.462 14.2333 98.4486 14.3933 98.4353 14.54H89.8553V12.54H96.4153L94.9753 13.1C94.9886 12.6067 94.8953 12.18 94.6953 11.82C94.5086 11.46 94.242 11.18 93.8953 10.98C93.562 10.78 93.1686 10.68 92.7153 10.68C92.262 10.68 91.862 10.78 91.5153 10.98C91.182 11.18 90.922 11.4667 90.7353 11.84C90.5486 12.2 90.4553 12.6267 90.4553 13.12V13.7C90.4553 14.2333 90.562 14.6933 90.7753 15.08C91.002 15.4667 91.322 15.7667 91.7353 15.98C92.1486 16.18 92.642 16.28 93.2153 16.28C93.7486 16.28 94.202 16.2067 94.5753 16.06C94.962 15.9 95.342 15.66 95.7153 15.34L97.7153 17.42C97.1953 17.9933 96.5553 18.4333 95.7953 18.74C95.0353 19.0333 94.1353 19.18 93.0953 19.18ZM100.247 19V8.16H103.867V11.32L103.327 10.42C103.647 9.60667 104.167 9 104.887 8.6C105.607 8.18667 106.481 7.98 107.507 7.98V11.4C107.334 11.3733 107.181 11.36 107.047 11.36C106.927 11.3467 106.794 11.34 106.647 11.34C105.874 11.34 105.247 11.5533 104.767 11.98C104.287 12.3933 104.047 13.0733 104.047 14.02V19H100.247ZM116.135 7.98C116.975 7.98 117.735 8.15333 118.415 8.5C119.095 8.83333 119.629 9.35333 120.015 10.06C120.415 10.7667 120.615 11.68 120.615 12.8V19H116.815V13.42C116.815 12.6467 116.655 12.0867 116.335 11.74C116.029 11.38 115.595 11.2 115.035 11.2C114.635 11.2 114.269 11.2933 113.935 11.48C113.602 11.6533 113.342 11.9267 113.155 12.3C112.969 12.6733 112.875 13.16 112.875 13.76V19H109.075V8.16H112.695V11.24L111.995 10.34C112.409 9.55333 112.975 8.96667 113.695 8.58C114.415 8.18 115.229 7.98 116.135 7.98ZM129.621 19V16.98L129.361 16.48V12.76C129.361 12.16 129.175 11.7 128.801 11.38C128.441 11.0467 127.861 10.88 127.061 10.88C126.541 10.88 126.015 10.9667 125.481 11.14C124.948 11.3 124.495 11.5267 124.121 11.82L122.841 9.24C123.455 8.84 124.188 8.53333 125.041 8.32C125.908 8.09333 126.768 7.98 127.621 7.98C129.381 7.98 130.741 8.38667 131.701 9.2C132.675 10 133.161 11.26 133.161 12.98V19H129.621ZM126.421 19.18C125.555 19.18 124.821 19.0333 124.221 18.74C123.621 18.4467 123.161 18.0467 122.841 17.54C122.535 17.0333 122.381 16.4667 122.381 15.84C122.381 15.1733 122.548 14.6 122.881 14.12C123.228 13.6267 123.755 13.2533 124.461 13C125.168 12.7333 126.081 12.6 127.201 12.6H129.761V14.58H127.721C127.108 14.58 126.675 14.68 126.421 14.88C126.181 15.08 126.061 15.3467 126.061 15.68C126.061 16.0133 126.188 16.28 126.441 16.48C126.695 16.68 127.041 16.78 127.481 16.78C127.895 16.78 128.268 16.68 128.601 16.48C128.948 16.2667 129.201 15.9467 129.361 15.52L129.881 16.92C129.681 17.6667 129.288 18.2333 128.701 18.62C128.128 18.9933 127.368 19.18 126.421 19.18ZM135.56 19V4.16H139.36V19H135.56Z" fill="#E8E8E8" fill-opacity="0.7"/>
<path d="M57.77 43.06C56.71 43.06 55.745 42.89 54.875 42.55C54.005 42.21 53.255 41.73 52.625 41.11C51.995 40.49 51.51 39.765 51.17 38.935C50.83 38.095 50.66 37.18 50.66 36.19C50.66 35.2 50.83 34.29 51.17 33.46C51.51 32.63 51.995 31.91 52.625 31.3C53.265 30.69 54.025 30.215 54.905 29.875C55.785 29.535 56.76 29.365 57.83 29.365C58.86 29.365 59.805 29.53 60.665 29.86C61.525 30.18 62.265 30.635 62.885 31.225C63.515 31.805 64 32.495 64.34 33.295C64.69 34.095 64.865 34.975 64.865 35.935C64.865 36.795 64.75 37.54 64.52 38.17C64.29 38.79 63.96 39.265 63.53 39.595C63.11 39.925 62.595 40.09 61.985 40.09C61.365 40.09 60.87 39.905 60.5 39.535C60.14 39.165 59.96 38.63 59.96 37.93V37.075L60.02 36.22L59.885 34.27V32.56H61.55V37.66C61.55 38.04 61.625 38.31 61.775 38.47C61.935 38.62 62.12 38.695 62.33 38.695C62.6 38.695 62.83 38.59 63.02 38.38C63.21 38.17 63.35 37.86 63.44 37.45C63.54 37.04 63.59 36.545 63.59 35.965C63.59 35.165 63.45 34.435 63.17 33.775C62.9 33.115 62.505 32.55 61.985 32.08C61.475 31.6 60.865 31.235 60.155 30.985C59.455 30.725 58.68 30.595 57.83 30.595C56.96 30.595 56.17 30.735 55.46 31.015C54.75 31.285 54.14 31.67 53.63 32.17C53.12 32.67 52.725 33.265 52.445 33.955C52.175 34.635 52.04 35.38 52.04 36.19C52.04 37.02 52.175 37.78 52.445 38.47C52.715 39.16 53.1 39.75 53.6 40.24C54.11 40.74 54.715 41.125 55.415 41.395C56.115 41.675 56.9 41.815 57.77 41.815C58.23 41.815 58.715 41.76 59.225 41.65C59.735 41.55 60.22 41.385 60.68 41.155L61.085 42.355C60.625 42.585 60.095 42.76 59.495 42.88C58.895 43 58.32 43.06 57.77 43.06ZM57.38 40.09C56.69 40.09 56.075 39.93 55.535 39.61C54.995 39.28 54.565 38.83 54.245 38.26C53.935 37.68 53.78 37.015 53.78 36.265C53.78 35.525 53.935 34.87 54.245 34.3C54.555 33.72 54.98 33.27 55.52 32.95C56.07 32.63 56.69 32.47 57.38 32.47C58.05 32.47 58.635 32.62 59.135 32.92C59.635 33.21 60.025 33.635 60.305 34.195C60.585 34.755 60.725 35.445 60.725 36.265C60.725 37.085 60.59 37.78 60.32 38.35C60.05 38.92 59.665 39.355 59.165 39.655C58.665 39.945 58.07 40.09 57.38 40.09ZM57.695 38.635C58.125 38.635 58.505 38.545 58.835 38.365C59.165 38.175 59.425 37.9 59.615 37.54C59.815 37.18 59.915 36.755 59.915 36.265C59.915 35.765 59.815 35.345 59.615 35.005C59.425 34.655 59.165 34.39 58.835 34.21C58.505 34.02 58.125 33.925 57.695 33.925C57.255 33.925 56.865 34.02 56.525 34.21C56.195 34.4 55.935 34.67 55.745 35.02C55.565 35.37 55.475 35.785 55.475 36.265C55.475 36.755 55.565 37.175 55.745 37.525C55.935 37.875 56.195 38.15 56.525 38.35C56.865 38.54 57.255 38.635 57.695 38.635ZM71.1827 40.105C70.5327 40.105 69.9377 39.955 69.3977 39.655C68.8677 39.355 68.4427 38.905 68.1227 38.305C67.8127 37.695 67.6577 36.925 67.6577 35.995C67.6577 35.055 67.8077 34.285 68.1077 33.685C68.4177 33.085 68.8377 32.64 69.3677 32.35C69.8977 32.05 70.5027 31.9 71.1827 31.9C71.9727 31.9 72.6677 32.07 73.2677 32.41C73.8777 32.75 74.3577 33.225 74.7077 33.835C75.0677 34.445 75.2477 35.165 75.2477 35.995C75.2477 36.825 75.0677 37.55 74.7077 38.17C74.3577 38.78 73.8777 39.255 73.2677 39.595C72.6677 39.935 71.9727 40.105 71.1827 40.105ZM66.7427 42.91V31.99H68.5277V33.88L68.4677 36.01L68.6177 38.14V42.91H66.7427ZM70.9727 38.5C71.4227 38.5 71.8227 38.4 72.1727 38.2C72.5327 38 72.8177 37.71 73.0277 37.33C73.2377 36.95 73.3427 36.505 73.3427 35.995C73.3427 35.475 73.2377 35.03 73.0277 34.66C72.8177 34.28 72.5327 33.99 72.1727 33.79C71.8227 33.59 71.4227 33.49 70.9727 33.49C70.5227 33.49 70.1177 33.59 69.7577 33.79C69.3977 33.99 69.1127 34.28 68.9027 34.66C68.6927 35.03 68.5877 35.475 68.5877 35.995C68.5877 36.505 68.6927 36.95 68.9027 37.33C69.1127 37.71 69.3977 38 69.7577 38.2C70.1177 38.4 70.5227 38.5 70.9727 38.5ZM77.0259 40V31.99H78.8109V34.195L78.6009 33.55C78.8409 33.01 79.2159 32.6 79.7259 32.32C80.2459 32.04 80.8909 31.9 81.6609 31.9V33.685C81.5809 33.665 81.5059 33.655 81.4359 33.655C81.3659 33.645 81.2959 33.64 81.2259 33.64C80.5159 33.64 79.9509 33.85 79.5309 34.27C79.1109 34.68 78.9009 35.295 78.9009 36.115V40H77.0259ZM87.1494 40.15C86.3194 40.15 85.5694 39.94 84.8994 39.52C84.2394 39.1 83.7194 38.49 83.3394 37.69C82.9594 36.88 82.7694 35.9 82.7694 34.75C82.7694 33.6 82.9594 32.625 83.3394 31.825C83.7194 31.015 84.2394 30.4 84.8994 29.98C85.5694 29.56 86.3194 29.35 87.1494 29.35C87.9894 29.35 88.7394 29.56 89.3994 29.98C90.0594 30.4 90.5794 31.015 90.9594 31.825C91.3494 32.625 91.5444 33.6 91.5444 34.75C91.5444 35.9 91.3494 36.88 90.9594 37.69C90.5794 38.49 90.0594 39.1 89.3994 39.52C88.7394 39.94 87.9894 40.15 87.1494 40.15ZM87.1494 38.455C87.6394 38.455 88.0644 38.325 88.4244 38.065C88.7844 37.795 89.0644 37.385 89.2644 36.835C89.4744 36.285 89.5794 35.59 89.5794 34.75C89.5794 33.9 89.4744 33.205 89.2644 32.665C89.0644 32.115 88.7844 31.71 88.4244 31.45C88.0644 31.18 87.6394 31.045 87.1494 31.045C86.6794 31.045 86.2594 31.18 85.8894 31.45C85.5294 31.71 85.2444 32.115 85.0344 32.665C84.8344 33.205 84.7344 33.9 84.7344 34.75C84.7344 35.59 84.8344 36.285 85.0344 36.835C85.2444 37.385 85.5294 37.795 85.8894 38.065C86.2594 38.325 86.6794 38.455 87.1494 38.455ZM103.542 31.9C104.182 31.9 104.747 32.025 105.237 32.275C105.737 32.525 106.127 32.91 106.407 33.43C106.687 33.94 106.827 34.6 106.827 35.41V40H104.952V35.65C104.952 34.94 104.797 34.41 104.487 34.06C104.177 33.71 103.732 33.535 103.152 33.535C102.742 33.535 102.377 33.625 102.057 33.805C101.747 33.985 101.502 34.25 101.322 34.6C101.152 34.95 101.067 35.395 101.067 35.935V40H99.1921V35.65C99.1921 34.94 99.0371 34.41 98.7271 34.06C98.4171 33.71 97.9721 33.535 97.3921 33.535C96.9821 33.535 96.6171 33.625 96.2971 33.805C95.9871 33.985 95.7421 34.25 95.5621 34.6C95.3921 34.95 95.3071 35.395 95.3071 35.935V40H93.4321V31.99H95.2171V34.12L94.9021 33.49C95.1721 32.97 95.5621 32.575 96.0721 32.305C96.5921 32.035 97.1821 31.9 97.8421 31.9C98.5921 31.9 99.2421 32.085 99.7921 32.455C100.352 32.825 100.722 33.385 100.902 34.135L100.167 33.88C100.427 33.28 100.857 32.8 101.457 32.44C102.057 32.08 102.752 31.9 103.542 31.9ZM119.333 31.9C119.973 31.9 120.538 32.025 121.028 32.275C121.528 32.525 121.918 32.91 122.198 33.43C122.478 33.94 122.618 34.6 122.618 35.41V40H120.743V35.65C120.743 34.94 120.588 34.41 120.278 34.06C119.968 33.71 119.523 33.535 118.943 33.535C118.533 33.535 118.168 33.625 117.848 33.805C117.538 33.985 117.293 34.25 117.113 34.6C116.943 34.95 116.858 35.395 116.858 35.935V40H114.983V35.65C114.983 34.94 114.828 34.41 114.518 34.06C114.208 33.71 113.763 33.535 113.183 33.535C112.773 33.535 112.408 33.625 112.088 33.805C111.778 33.985 111.533 34.25 111.353 34.6C111.183 34.95 111.098 35.395 111.098 35.935V40H109.223V31.99H111.008V34.12L110.693 33.49C110.963 32.97 111.353 32.575 111.863 32.305C112.383 32.035 112.973 31.9 113.633 31.9C114.383 31.9 115.033 32.085 115.583 32.455C116.143 32.825 116.513 33.385 116.693 34.135L115.958 33.88C116.218 33.28 116.648 32.8 117.248 32.44C117.848 32.08 118.543 31.9 119.333 31.9ZM125.014 40V31.99H126.889V40H125.014ZM125.959 30.67C125.609 30.67 125.319 30.56 125.089 30.34C124.869 30.12 124.759 29.855 124.759 29.545C124.759 29.225 124.869 28.96 125.089 28.75C125.319 28.53 125.609 28.42 125.959 28.42C126.309 28.42 126.594 28.525 126.814 28.735C127.044 28.935 127.159 29.19 127.159 29.5C127.159 29.83 127.049 30.11 126.829 30.34C126.609 30.56 126.319 30.67 125.959 30.67ZM133.895 31.9C134.535 31.9 135.105 32.025 135.605 32.275C136.115 32.525 136.515 32.91 136.805 33.43C137.095 33.94 137.24 34.6 137.24 35.41V40H135.365V35.65C135.365 34.94 135.195 34.41 134.855 34.06C134.525 33.71 134.06 33.535 133.46 33.535C133.02 33.535 132.63 33.625 132.29 33.805C131.95 33.985 131.685 34.255 131.495 34.615C131.315 34.965 131.225 35.41 131.225 35.95V40H129.35V31.99H131.135V34.15L130.82 33.49C131.1 32.98 131.505 32.59 132.035 32.32C132.575 32.04 133.195 31.9 133.895 31.9ZM143.263 43.015C142.523 43.015 141.798 42.915 141.088 42.715C140.388 42.525 139.813 42.245 139.363 41.875L140.203 40.465C140.553 40.755 140.993 40.985 141.523 41.155C142.063 41.335 142.608 41.425 143.158 41.425C144.038 41.425 144.683 41.22 145.093 40.81C145.503 40.41 145.708 39.805 145.708 38.995V37.57L145.858 35.755L145.798 33.94V31.99H147.583V38.785C147.583 40.235 147.213 41.3 146.473 41.98C145.733 42.67 144.663 43.015 143.263 43.015ZM143.023 39.64C142.263 39.64 141.573 39.48 140.953 39.16C140.343 38.83 139.858 38.375 139.498 37.795C139.148 37.215 138.973 36.535 138.973 35.755C138.973 34.985 139.148 34.31 139.498 33.73C139.858 33.15 140.343 32.7 140.953 32.38C141.573 32.06 142.263 31.9 143.023 31.9C143.703 31.9 144.313 32.035 144.853 32.305C145.393 32.575 145.823 32.995 146.143 33.565C146.473 34.135 146.638 34.865 146.638 35.755C146.638 36.645 146.473 37.38 146.143 37.96C145.823 38.53 145.393 38.955 144.853 39.235C144.313 39.505 143.703 39.64 143.023 39.64ZM143.308 38.05C143.778 38.05 144.198 37.955 144.568 37.765C144.938 37.565 145.223 37.295 145.423 36.955C145.633 36.605 145.738 36.205 145.738 35.755C145.738 35.305 145.633 34.91 145.423 34.57C145.223 34.22 144.938 33.955 144.568 33.775C144.198 33.585 143.778 33.49 143.308 33.49C142.838 33.49 142.413 33.585 142.033 33.775C141.663 33.955 141.373 34.22 141.163 34.57C140.963 34.91 140.863 35.305 140.863 35.755C140.863 36.205 140.963 36.605 141.163 36.955C141.373 37.295 141.663 37.565 142.033 37.765C142.413 37.955 142.838 38.05 143.308 38.05Z" fill="#E8E8E8" fill-opacity="0.7"/>
</svg>
